if (_typeface_js && _typeface_js.loadFace) _typeface_js.loadFace({"glyphs":{"0":{"ha":725,"x_min":38,"x_max":686,"o":"m 686 394 q 615 93 686 193 q 338 -25 532 -25 q 143 22 203 -25 q 38 332 38 104 q 247 821 38 632 q 326 907 288 856 l 358 881 q 601 694 514 831 q 686 394 686 565 m 549 394 q 382 721 549 603 q 360 735 371 729 q 175 332 175 568 q 193 186 175 232 q 308 114 222 114 q 507 178 460 114 q 549 394 549 232 z "},"1":{"ha":225,"x_min":47,"x_max":161,"o":"m 161 889 q 154 -3 154 608 l 47 -3 l 47 153 q 56 894 47 597 l 161 889 z "},"2":{"ha":640,"x_min":-11,"x_max":615,"o":"m 615 -4 q 438 -7 578 -4 l 457 13 q 7 -8 438 -8 q 65 156 32 104 q 182 278 90 194 q 336 447 263 351 q 433 644 433 575 q 405 728 433 706 q 315 750 376 750 q 111 619 175 750 l -11 682 q 315 889 92 889 q 569 644 569 889 q 443 364 569 522 q 224 132 401 313 q 419 133 296 131 q 615 136 563 136 l 615 -4 z "},"3":{"ha":606,"x_min":10,"x_max":572,"o":"m 572 279 q 456 60 572 133 q 218 1 363 1 q 46 13 192 1 l 51 151 q 218 140 197 140 q 436 279 436 140 q 388 394 436 369 q 249 419 361 408 l 17 442 q 393 732 393 639 q 372 775 393 758 q 324 792 350 792 q 206 763 250 792 q 117 672 168 739 l 10 761 q 146 889 82 851 q 324 931 219 931 q 467 874 406 931 q 528 732 528 817 q 432 526 528 619 q 572 279 572 468 z "},"4":{"ha":778,"x_min":14,"x_max":746,"o":"m 746 290 q 538 286 626 290 q 538 143 538 211 q 539 1 539 43 l 400 1 q 400 139 400 54 q 399 276 399 244 q 276 274 338 274 q 14 286 169 274 l 131 485 q 256 644 190 585 q 553 967 321 704 l 553 693 q 547 558 553 643 q 538 425 539 457 q 746 429 628 429 l 746 290 m 406 603 q 326 522 368 564 q 250 411 294 492 q 399 417 275 410 q 406 603 400 518 z "},"5":{"ha":640,"x_min":33,"x_max":618,"o":"m 618 254 q 540 53 618 133 q 342 -28 463 -28 q 200 1 290 -28 q 58 40 96 35 l 76 178 q 224 139 131 169 q 342 113 300 113 q 442 152 403 113 q 482 254 482 192 q 414 386 482 339 q 268 428 354 428 q 33 389 214 428 l 33 696 q 39 787 33 726 q 44 878 44 847 l 315 878 q 341 876 324 878 q 368 874 358 874 q 464 882 404 874 q 560 894 535 893 l 571 757 q 469 743 519 750 q 368 733 408 733 q 272 736 333 733 q 176 739 203 739 q 169 558 169 660 q 264 567 218 567 q 510 488 411 567 q 618 254 618 401 z "},"6":{"ha":746,"x_min":28,"x_max":725,"o":"m 725 213 q 659 41 725 107 q 486 -25 593 -25 q 168 94 303 -25 q 28 403 28 218 q 364 849 28 722 q 546 886 463 886 l 661 886 l 661 747 l 551 747 q 300 663 411 747 q 176 488 203 589 q 358 540 256 540 q 611 454 506 540 q 725 213 725 360 m 583 218 q 513 357 583 306 q 358 401 449 401 q 183 307 256 401 q 304 169 215 228 q 478 111 393 111 q 583 218 583 111 z "},"7":{"ha":665,"x_min":15,"x_max":635,"o":"m 635 860 q 597 643 635 732 q 453 313 525 478 q 347 -32 375 119 l 214 -7 q 290 264 235 114 q 394 525 304 304 q 481 718 429 590 q 15 742 214 719 l 29 879 q 635 860 224 858 z "},"8":{"ha":667,"x_min":42,"x_max":625,"o":"m 625 663 q 583 524 625 579 q 506 454 558 490 q 621 253 621 385 q 508 47 621 124 q 278 -17 410 -17 q 108 58 175 -17 q 42 239 42 133 q 144 444 42 371 q 58 653 58 528 q 143 843 58 772 q 342 910 222 910 q 536 846 456 910 q 625 663 625 776 m 489 663 q 457 740 489 711 q 383 782 436 760 l 385 779 q 258 756 293 771 q 194 654 194 728 q 222 564 194 610 q 293 511 253 511 q 319 514 300 511 q 344 517 335 517 q 446 582 358 526 q 489 663 489 608 m 485 249 q 440 329 485 289 q 353 369 394 369 q 176 246 176 369 q 205 161 176 199 q 278 124 233 124 q 408 150 350 124 q 485 249 485 183 z "},"9":{"ha":681,"x_min":47,"x_max":635,"o":"m 635 538 q 549 183 635 340 q 260 -8 444 -8 q 90 50 138 -8 q 47 231 47 103 l 183 231 q 193 142 183 153 q 260 132 203 132 q 417 215 351 132 q 492 385 468 282 q 293 322 411 322 q 115 397 182 322 q 47 586 47 471 q 128 806 47 717 q 335 894 208 894 q 468 878 383 894 q 601 740 558 861 q 635 538 635 651 m 478 646 q 443 744 478 725 l 471 761 q 379 747 433 744 l 379 750 q 335 756 350 756 q 225 706 268 756 q 182 588 182 657 q 210 499 182 532 q 293 461 240 461 q 428 511 378 461 q 478 646 478 561 z "}," ":{"ha":347,"x_min":0,"x_max":0,"o":""},"!":{"ha":221,"x_min":39,"x_max":156,"o":"m 156 942 q 151 609 156 831 q 146 278 146 388 l 39 278 q 44 609 39 388 q 49 942 49 831 l 156 942 m 156 17 l 49 17 l 49 160 l 156 160 l 156 17 z "},"\"":{"ha":404,"x_min":35,"x_max":351,"o":"m 351 1003 q 335 789 347 947 q 325 578 325 668 l 197 578 q 207 794 197 671 q 221 1011 221 978 l 351 1003 m 176 974 q 170 787 176 911 q 164 600 164 663 l 35 600 q 42 787 35 663 q 49 974 49 911 l 176 974 z "},"#":{"ha":976,"x_min":-8,"x_max":949,"o":"m 949 576 q 765 557 860 568 q 704 401 740 488 l 942 404 l 942 265 q 640 263 797 265 q 579 121 594 164 q 546 -31 553 47 l 407 -18 q 483 261 419 114 l 319 260 q 275 111 281 125 q 204 -32 250 40 l 86 43 q 176 260 135 119 q -8 274 83 263 l 11 413 q 207 396 133 396 l 218 396 q 257 500 232 436 q 68 475 193 490 l 56 614 q 314 646 156 628 q 369 771 364 753 q 394 904 394 838 l 535 904 q 518 778 535 835 q 474 663 510 749 l 661 685 q 686 882 688 767 l 826 882 q 810 703 826 779 q 936 715 868 710 l 949 576 m 606 538 q 415 515 488 524 l 368 399 l 547 401 q 606 538 578 469 z "},"$":{"ha":614,"x_min":35,"x_max":611,"o":"m 611 799 l 522 692 q 447 751 471 739 q 357 771 414 769 q 353 551 354 697 q 496 453 439 513 q 564 296 564 379 q 488 144 564 200 q 326 90 421 94 q 326 -49 325 57 l 190 -49 q 192 101 189 68 q 35 261 103 128 l 156 326 q 208 247 185 268 q 218 453 217 335 q 58 640 58 524 q 105 800 58 726 q 229 899 151 874 q 239 1054 238 989 l 374 1054 q 367 910 374 971 q 499 881 447 907 q 611 799 540 861 m 221 729 q 193 660 193 700 q 219 608 193 626 q 221 729 219 667 m 426 299 q 353 396 426 356 q 343 232 350 304 q 426 299 426 240 z "},"%":{"ha":969,"x_min":35,"x_max":949,"o":"m 949 249 q 883 88 949 146 q 713 29 817 29 q 565 74 622 29 q 504 213 504 124 q 817 496 504 453 q 949 249 949 399 m 810 239 q 771 347 810 289 q 682 306 721 339 q 639 221 639 268 q 713 168 639 168 q 810 239 810 168 m 796 829 q 185 -46 422 240 l 76 43 q 494 607 354 379 l 676 903 l 796 829 m 418 644 q 365 479 418 565 q 224 378 303 378 q 81 447 133 378 q 35 601 35 510 q 69 747 35 683 q 189 826 113 826 q 221 824 193 826 l 272 819 l 271 814 q 379 761 340 807 q 418 644 418 715 m 281 631 q 264 671 281 665 q 190 675 257 675 q 174 599 174 647 q 214 517 174 522 q 258 568 257 567 q 281 631 281 600 z "},"&":{"ha":694,"x_min":14,"x_max":682,"o":"m 274 415 q 154 271 154 353 q 188 172 154 217 q 272 128 221 128 q 404 279 369 128 q 274 279 358 278 l 274 415 m 682 283 q 547 282 592 283 q 458 86 528 174 q 276 -14 378 -14 q 93 72 167 -14 q 19 271 19 158 q 103 465 19 392 q 14 640 14 525 q 79 800 14 738 q 242 863 144 863 q 493 772 349 863 l 419 653 q 246 724 313 724 q 151 643 151 724 q 182 575 151 594 q 269 546 196 567 l 450 497 l 281 418 q 482 421 342 418 q 682 422 614 422 l 682 283 z "},"'":{"ha":225,"x_min":35,"x_max":186,"o":"m 186 992 q 168 831 182 925 q 151 693 151 725 l 151 579 l 38 579 q 51 826 35 721 q 72 1000 69 938 l 186 992 z "},"(":{"ha":422,"x_min":22,"x_max":403,"o":"m 403 838 q 342 814 382 831 q 197 578 251 771 q 154 285 154 426 q 294 -32 154 -6 q 360 -36 304 -32 l 351 -176 q 22 279 22 -154 q 86 674 22 503 q 357 969 168 894 l 403 838 z "},")":{"ha":413,"x_min":26,"x_max":375,"o":"m 375 358 q 131 -185 375 28 l 50 -74 q 201 119 158 19 q 243 372 243 219 q 147 732 243 579 q 26 922 110 790 l 133 1001 q 310 699 285 757 q 375 358 375 551 z "},"*":{"ha":622,"x_min":28,"x_max":597,"o":"m 597 939 l 593 872 q 394 599 589 786 q 564 458 467 519 l 490 342 q 297 506 388 407 q 144 351 225 438 l 46 444 q 206 608 107 513 q 79 754 101 718 q 28 943 36 824 l 164 953 q 179 855 168 885 q 231 781 190 825 q 244 989 236 850 l 381 983 q 367 764 375 910 q 457 879 456 858 l 463 949 l 597 939 z "},"+":{"ha":699,"x_min":19,"x_max":685,"o":"m 685 356 q 518 338 601 340 q 392 332 492 336 q 408 61 394 243 l 275 43 q 256 326 260 149 q 19 324 168 324 l 19 461 q 253 465 161 461 q 250 706 250 578 l 386 706 q 389 472 386 579 q 525 475 492 474 q 660 490 600 479 l 685 356 z "},",":{"ha":436,"x_min":31,"x_max":386,"o":"m 386 125 l 315 -86 q 225 -199 288 -143 q 114 -290 169 -244 l 31 -189 q 121 -117 76 -147 q 207 0 179 -76 q 263 171 224 51 l 386 125 z "},"-":{"ha":554,"x_min":38,"x_max":482,"o":"m 482 290 q 372 292 432 290 q 282 294 311 294 q 83 265 179 294 l 38 369 q 272 407 153 407 q 377 405 307 407 q 482 403 447 403 l 482 290 z "},".":{"ha":325,"x_min":43,"x_max":263,"o":"m 263 10 q 61 -18 200 4 l 43 132 q 250 161 117 143 l 263 10 z "},"/":{"ha":682,"x_min":0,"x_max":689,"o":"m 689 843 q 621 719 663 782 q 557 619 568 639 q 429 357 522 560 q 285 79 344 171 q 75 -149 192 -69 l 0 -32 q 196 194 103 38 q 347 496 246 279 q 496 774 438 688 q 565 901 536 833 l 689 843 z "},":":{"ha":261,"x_min":24,"x_max":229,"o":"m 229 640 q 54 561 146 586 l 24 694 q 169 761 100 717 l 229 640 m 229 13 q 68 -26 149 4 l 29 106 q 219 151 124 142 l 229 13 z "},";":{"ha":365,"x_min":26,"x_max":346,"o":"m 346 613 q 149 576 243 575 l 149 717 q 307 746 224 717 l 346 613 m 294 76 q 282 -42 294 3 q 239 -149 275 -69 q 125 -278 192 -256 l 64 -299 l 26 -164 q 86 -140 75 -147 q 124 -87 106 -126 q 163 14 157 -12 q 165 147 165 33 l 294 147 l 294 76 z "},"<":{"ha":576,"x_min":26,"x_max":564,"o":"m 564 211 l 485 100 q 358 194 372 185 q 225 276 285 247 q 104 361 143 317 q 26 488 74 396 q 421 815 314 631 l 538 746 q 219 438 439 575 q 311 383 251 411 q 438 313 411 335 q 564 211 469 288 z "},"=":{"ha":535,"x_min":22,"x_max":507,"o":"m 486 463 q 44 417 329 415 l 44 549 q 447 590 310 549 l 486 463 m 507 164 q 265 154 426 164 q 22 144 103 144 l 22 278 q 265 288 103 278 q 507 297 426 297 l 507 164 z "},">":{"ha":651,"x_min":22,"x_max":654,"o":"m 654 432 q 446 283 557 331 q 268 200 311 225 q 115 78 203 161 l 22 179 q 210 310 92 243 q 406 424 371 401 q 200 557 256 511 q 44 747 97 639 l 167 810 q 654 432 261 615 z "},"?":{"ha":671,"x_min":6,"x_max":646,"o":"m 646 699 q 561 483 646 571 q 349 396 476 396 q 300 400 325 396 q 288 172 303 301 l 151 189 q 163 617 163 278 q 269 551 204 590 q 354 538 303 538 q 464 584 419 538 q 508 697 508 631 q 473 787 508 756 q 381 818 438 818 q 231 799 276 818 q 124 690 169 772 l 6 758 q 161 921 71 878 q 381 958 238 958 q 571 888 496 958 q 646 699 646 817 m 324 -11 l 128 -11 l 128 131 l 324 131 l 324 -11 z "},"@":{"ha":918,"x_min":36,"x_max":876,"o":"m 876 569 q 722 286 876 286 q 567 364 624 286 q 363 275 492 275 q 200 431 200 275 q 275 626 200 536 q 460 722 356 722 q 579 686 508 722 q 660 600 660 644 q 642 569 660 582 q 722 425 657 425 q 728 439 728 425 q 731 481 731 475 q 738 569 738 529 q 636 713 738 654 q 460 763 550 763 q 235 638 308 763 q 175 376 175 538 q 244 206 175 274 q 415 138 313 138 q 567 169 454 138 q 706 222 685 203 q 717 236 707 225 l 719 238 l 750 274 l 853 181 q 636 42 772 89 q 406 1 517 1 q 131 121 231 1 q 36 411 36 233 q 139 743 36 601 q 438 900 253 900 q 728 819 601 900 q 876 569 876 726 m 501 575 q 469 583 488 583 q 381 538 424 583 q 339 444 339 492 q 375 411 339 411 q 468 467 433 411 q 501 575 497 513 z "},"A":{"ha":683,"x_min":10,"x_max":681,"o":"m 681 31 l 551 -17 q 446 314 488 161 l 214 315 q 181 151 204 281 q 138 -11 161 50 l 10 42 q 63 240 36 110 q 110 440 90 381 q 197 647 118 464 q 258 836 243 751 q 283 1040 261 851 q 456 711 349 940 q 515 582 472 675 q 681 31 567 397 m 408 454 q 385 539 396 503 q 340 632 381 551 q 264 456 315 574 l 408 454 z "},"B":{"ha":592,"x_min":28,"x_max":549,"o":"m 549 294 q 396 54 549 132 q 96 -4 282 -4 l 96 8 l 51 8 q 53 196 51 71 q 54 383 54 321 q 28 942 54 854 l 40 944 l 40 958 q 154 965 99 956 q 239 975 210 975 q 451 914 372 975 q 540 710 540 844 q 418 514 540 581 q 549 294 549 422 m 406 710 q 257 833 406 833 q 175 828 224 833 q 181 663 181 657 q 185 619 181 643 l 189 594 q 317 628 256 604 q 406 710 406 664 m 414 294 q 338 410 414 361 q 194 454 268 454 l 192 454 q 186 138 192 440 q 331 178 265 142 q 414 294 414 222 z "},"C":{"ha":636,"x_min":8,"x_max":671,"o":"m 671 768 l 538 726 q 507 804 526 788 q 431 821 488 821 l 375 821 q 275 803 301 821 q 215 715 249 786 q 146 447 146 568 q 207 222 146 308 q 410 125 276 125 q 494 158 447 125 q 567 218 500 163 l 653 110 q 542 24 578 46 q 410 -17 475 -17 q 110 122 221 -17 q 8 447 8 250 q 76 736 8 576 q 260 951 156 921 q 349 961 296 961 q 543 944 497 961 q 671 768 631 911 z "},"D":{"ha":651,"x_min":33,"x_max":615,"o":"m 615 425 q 419 139 615 264 q 100 -15 351 94 l 47 -14 q 40 85 40 22 q 37 525 40 232 q 33 965 33 818 l 69 965 q 229 936 107 965 q 540 775 461 883 q 615 425 615 672 m 479 425 q 464 611 479 554 q 356 751 439 711 q 165 810 308 775 q 174 171 169 586 q 442 331 386 271 q 479 425 479 371 z "},"E":{"ha":588,"x_min":-11,"x_max":604,"o":"m 604 850 q 138 828 433 844 q 135 556 135 693 q 169 556 153 556 q 483 606 322 556 l 524 472 q 135 417 336 413 l 131 138 q 494 183 351 133 l 539 51 q 333 6 436 15 q 122 0 275 0 q 1 -17 47 0 q -11 143 -11 54 q -5 547 -11 278 q 1 951 1 817 l 3 951 l 3 953 q 299 978 119 969 q 594 990 565 988 l 604 850 z "},"F":{"ha":568,"x_min":-26,"x_max":583,"o":"m 583 949 l 539 817 q 319 850 419 857 l 311 850 l 276 849 q 142 843 253 847 q 140 790 142 826 q 138 735 138 753 l 138 533 q 311 560 225 547 q 488 575 414 575 l 488 435 q 311 419 414 435 q 138 393 225 406 q 139 317 138 372 q 140 240 140 268 q 114 -18 140 97 l -18 14 q 4 238 4 115 q 3 313 4 265 q 1 389 1 369 l -1 389 l -1 529 l 1 529 q 4 681 1 574 q 7 831 7 776 q 6 843 7 838 l 1 843 l 1 872 q -26 947 1 886 l 1 963 l 1 983 l 40 983 l 94 1008 l 108 983 q 213 986 135 983 q 318 989 279 989 q 583 949 463 989 z "},"G":{"ha":726,"x_min":21,"x_max":713,"o":"m 713 300 q 701 194 713 221 l 704 199 q 563 22 663 65 q 336 -8 493 -8 q 92 140 178 -8 q 21 435 21 264 q 74 676 21 528 q 190 888 129 836 q 429 967 285 967 q 594 932 536 967 q 703 801 653 897 l 581 736 q 522 814 551 797 q 429 826 499 826 q 294 806 325 826 q 229 692 269 788 q 179 560 199 621 q 158 435 158 490 q 186 274 158 361 q 271 143 219 167 q 340 132 296 132 q 518 154 479 132 q 574 303 576 189 l 571 385 l 493 388 q 353 369 429 389 l 319 504 q 511 528 408 528 q 609 526 543 528 q 708 525 675 525 q 710 413 708 488 q 713 300 713 338 z "},"H":{"ha":650,"x_min":46,"x_max":594,"o":"m 594 958 q 585 666 594 861 q 576 374 576 471 q 578 313 576 354 q 579 253 579 272 q 574 122 579 210 q 568 -8 568 35 l 433 -8 q 439 167 432 113 q 444 236 444 214 q 442 329 444 265 q 439 422 438 389 q 336 426 419 422 q 190 431 253 431 l 185 431 q 183 228 185 386 q 182 24 182 101 l 46 24 l 46 446 q 51 692 46 528 q 57 939 57 856 l 193 939 q 189 754 193 869 q 185 571 185 618 l 190 571 q 299 566 213 571 q 449 561 386 561 q 458 958 458 729 l 594 958 z "},"I":{"ha":568,"x_min":19,"x_max":553,"o":"m 553 -3 l 124 -8 q 19 22 118 -8 l 54 156 q 197 133 138 133 l 197 189 q 208 514 197 304 q 221 839 219 739 q 58 817 147 832 l 36 954 q 526 990 239 990 l 526 850 q 356 849 413 850 q 343 519 354 746 q 332 190 332 306 l 332 135 l 551 138 l 553 -3 z "},"J":{"ha":626,"x_min":-11,"x_max":671,"o":"m 671 822 q 501 818 564 822 q 507 638 501 781 q 511 457 511 526 q 489 161 511 243 q 278 -22 442 -22 q 136 11 204 -22 q 31 110 63 47 q -11 388 -7 182 l 126 390 q 129 281 128 301 q 153 174 135 207 q 217 132 165 150 q 294 117 261 117 q 365 257 349 117 q 369 475 369 301 q 364 808 369 553 q 217 807 313 806 l 217 946 q 444 954 293 946 q 671 963 594 963 l 671 822 z "},"K":{"ha":586,"x_min":19,"x_max":575,"o":"m 575 39 l 460 -40 q 367 119 408 50 q 275 231 333 178 q 164 322 219 276 q 167 -17 167 158 l 31 -17 q 32 131 31 32 q 32 279 32 229 q 26 510 32 356 q 19 742 19 665 q 19 858 19 781 q 21 974 21 936 l 156 974 q 160 607 156 792 q 311 783 281 743 q 413 992 390 890 l 544 960 q 217 458 496 739 q 319 365 264 410 q 433 261 392 311 q 519 128 475 211 q 575 39 536 94 z "},"L":{"ha":574,"x_min":1,"x_max":615,"o":"m 615 1 q 400 -15 394 -15 q 357 -12 376 -15 q 190 -10 303 -12 q 22 -8 78 -8 q 24 142 22 42 q 25 293 25 243 q 13 512 25 367 q 1 729 1 657 q 4 844 1 768 q 7 958 7 919 l 143 958 q 140 844 143 919 q 138 729 138 768 q 139 718 138 729 l 142 678 q 154 508 146 633 q 158 131 161 422 q 276 129 218 129 q 606 140 426 129 l 615 1 z "},"M":{"ha":971,"x_min":19,"x_max":954,"o":"m 954 28 l 822 -21 q 756 242 810 17 q 686 522 735 321 q 551 108 611 289 q 503 19 532 51 q 401 -62 492 6 q 247 542 376 133 q 175 97 225 393 q 158 -29 164 44 l 19 -21 q 53 189 19 -18 q 138 696 74 331 q 193 1010 154 783 q 375 613 306 814 q 467 313 406 524 q 714 1085 549 561 q 892 235 807 599 q 954 28 917 129 z "},"N":{"ha":746,"x_min":49,"x_max":685,"o":"m 685 914 l 682 165 q 656 29 682 111 q 608 -103 632 -36 q 504 99 561 22 l 397 242 q 189 564 363 288 q 186 -18 186 317 l 49 -18 q 53 528 49 164 q 57 1075 57 893 q 296 656 143 889 q 544 282 364 550 q 542 435 542 353 q 544 674 542 514 q 547 914 547 833 l 685 914 z "},"O":{"ha":753,"x_min":36,"x_max":718,"o":"m 718 442 q 646 125 718 243 q 365 -22 556 -22 q 132 90 231 -22 q 36 338 36 199 q 135 674 36 504 q 385 908 239 854 q 493 949 419 918 q 560 908 551 914 q 618 860 603 882 q 654 769 633 839 q 718 442 718 558 m 581 442 q 553 650 581 532 q 478 797 519 788 q 376 746 442 782 q 232 563 290 681 q 174 338 174 446 q 230 188 174 256 q 365 119 286 119 q 581 442 581 119 z "},"P":{"ha":611,"x_min":8,"x_max":593,"o":"m 593 689 q 486 504 593 571 q 286 435 424 465 q 167 400 196 414 q 168 -8 169 275 l 32 -8 q 25 435 32 140 q 18 878 18 735 l 8 900 l 18 907 l 18 935 l 68 935 q 236 965 142 965 q 475 901 376 965 q 593 689 593 825 m 457 689 q 381 794 457 757 q 231 825 315 825 q 156 817 188 825 q 163 547 156 719 q 335 589 219 560 q 457 689 457 624 z "},"Q":{"ha":729,"x_min":-28,"x_max":783,"o":"m 783 -189 q 625 -208 692 -208 q 268 -7 365 -208 q 47 174 132 21 q -28 460 -28 310 q 263 886 -28 769 q 396 919 346 919 q 563 803 493 919 q 669 393 669 621 q 607 156 669 263 q 419 1 538 39 q 631 -67 482 -67 q 760 -50 685 -67 l 783 -189 m 531 393 q 503 626 531 531 q 356 778 460 778 q 190 684 269 778 q 110 481 110 590 q 164 254 110 364 q 322 129 226 129 q 479 214 421 129 q 531 393 531 289 z "},"R":{"ha":600,"x_min":46,"x_max":586,"o":"m 586 111 l 517 -7 q 190 258 325 113 q 194 8 194 147 l 58 8 q 52 299 58 106 q 46 589 46 493 q 49 772 46 650 q 51 954 51 893 l 186 954 l 186 933 l 197 933 q 401 886 319 933 q 504 707 504 826 q 424 514 504 604 q 251 394 354 438 q 586 111 378 243 m 371 699 q 311 776 371 751 q 190 793 268 793 l 186 793 q 182 521 181 596 q 300 589 267 565 q 371 699 371 643 z "},"S":{"ha":576,"x_min":-12,"x_max":625,"o":"m 625 914 l 567 786 q 450 829 501 819 q 329 838 410 838 q 200 800 271 838 q 124 714 124 760 q 213 610 124 671 q 354 514 258 578 q 542 179 542 339 q 438 31 542 88 q 254 -17 353 -17 q 0 101 131 -17 l 92 207 q 254 125 182 125 q 346 142 293 125 q 404 179 404 161 q 332 329 404 238 q 207 446 265 413 q 57 549 97 508 q -12 714 -12 618 q 107 908 -12 829 q 329 978 211 978 q 481 967 429 978 q 625 914 540 956 z "},"T":{"ha":715,"x_min":0,"x_max":707,"o":"m 707 833 q 404 831 507 833 q 414 624 406 794 q 419 417 419 497 q 417 207 419 347 q 415 -4 415 67 l 278 -4 q 280 206 278 65 q 282 415 282 346 q 276 619 282 494 q 267 824 268 792 q 21 799 150 815 l 0 936 q 707 974 263 974 l 707 833 z "},"U":{"ha":697,"x_min":44,"x_max":639,"o":"m 639 393 q 556 115 639 233 q 310 -17 463 -17 q 44 392 44 -17 q 49 675 44 486 q 53 958 53 864 l 189 958 q 185 668 189 861 q 181 379 181 475 q 199 207 181 261 q 310 125 226 125 q 454 208 400 125 q 501 378 501 282 l 501 935 l 638 935 l 639 393 z "},"V":{"ha":721,"x_min":19,"x_max":725,"o":"m 725 921 q 656 733 699 847 q 569 554 608 640 q 514 394 551 513 q 461 228 467 246 q 399 76 422 111 q 256 -67 383 53 q 69 794 201 456 q 19 971 42 868 l 154 1003 q 192 874 165 950 q 235 747 231 760 q 338 297 267 644 q 442 608 397 497 q 528 788 474 667 q 599 979 549 844 l 725 921 z "},"W":{"ha":992,"x_min":22,"x_max":976,"o":"m 976 861 q 900 747 919 804 q 872 626 890 717 q 811 278 831 418 q 704 -75 800 196 q 615 164 667 49 q 481 528 560 283 q 386 215 453 422 q 321 93 369 169 q 215 -82 286 39 q 131 482 211 207 q 63 697 97 590 q 22 919 28 819 l 161 925 q 200 719 165 836 q 267 519 233 619 q 289 421 275 483 q 354 606 314 503 l 468 901 q 682 363 531 775 q 828 911 742 828 l 878 960 l 976 861 z "},"X":{"ha":633,"x_min":19,"x_max":618,"o":"m 618 907 q 556 774 593 842 q 496 667 535 739 q 381 413 490 654 q 596 49 481 190 l 490 -42 q 303 257 383 90 q 226 85 281 197 q 121 -37 196 32 l 29 67 q 113 161 86 119 q 149 242 129 188 q 196 350 172 303 q 229 413 199 356 q 110 643 189 489 q 19 928 49 764 l 151 954 q 211 753 174 843 q 301 568 238 685 q 426 818 375 729 q 492 958 458 875 l 618 907 z "},"Y":{"ha":671,"x_min":31,"x_max":646,"o":"m 646 960 q 551 685 622 825 q 429 449 510 607 q 376 346 410 408 l 376 21 l 240 21 l 242 392 q 131 558 206 440 q 46 747 65 663 q 31 956 31 817 l 167 956 q 200 726 167 822 q 314 524 233 629 q 431 747 372 635 q 511 985 493 879 l 646 960 z "},"Z":{"ha":654,"x_min":19,"x_max":651,"o":"m 651 938 q 582 751 618 810 q 485 618 572 736 q 396 490 478 608 q 300 369 343 414 q 214 265 240 306 q 167 140 181 211 q 282 138 219 138 q 463 141 343 138 q 642 144 582 144 l 642 6 q 471 3 585 6 q 300 1 357 1 q 19 14 149 1 q 61 263 25 171 q 203 468 100 360 q 293 582 244 513 l 376 704 q 442 789 407 743 q 289 781 374 781 q 155 784 244 781 q 21 788 65 788 l 21 926 q 156 924 65 926 q 290 922 246 922 q 410 930 331 922 q 529 938 489 938 l 651 938 z "},"[":{"ha":285,"x_min":6,"x_max":294,"o":"m 294 -158 q 168 -160 215 -158 q 58 -162 71 -162 l 13 -162 q 9 261 13 -21 q 6 683 6 543 q 8 817 6 728 q 10 950 10 906 q 107 954 42 950 q 204 958 172 958 l 244 958 l 244 818 l 215 818 q 135 811 226 818 q 133 535 133 681 q 139 -22 133 343 l 146 -22 q 220 -20 171 -22 q 294 -18 269 -18 l 294 -158 z "},"\\":{"ha":544,"x_min":-4,"x_max":589,"o":"m 589 -146 l 464 -201 q 317 114 421 -106 q 186 418 228 301 q 91 648 158 499 q -4 872 24 797 l 122 921 q 218 695 150 846 q 315 464 286 544 q 443 168 356 350 l 456 140 q 589 -146 547 -53 z "},"]":{"ha":335,"x_min":38,"x_max":278,"o":"m 278 -171 q 169 -169 242 -171 q 58 -167 96 -167 l 58 -26 q 154 -26 121 -26 l 154 311 q 138 825 154 619 q 46 817 107 821 l 38 956 l 247 989 q 278 49 278 626 l 278 -171 z "},"^":{"ha":578,"x_min":42,"x_max":546,"o":"m 546 626 l 436 549 q 283 789 329 693 q 214 679 231 713 q 174 551 189 629 l 42 578 q 139 813 67 693 l 272 1029 q 364 922 339 964 q 424 800 371 911 q 546 626 436 772 z "},"_":{"ha":800,"x_min":21,"x_max":742,"o":"m 742 -93 q 385 -110 594 -112 q 31 -112 118 -108 l 21 -3 q 188 1 93 1 q 306 0 226 1 q 425 -1 386 -1 q 719 15 600 -1 l 742 -93 z "},"`":{"ha":340,"x_min":-92,"x_max":372,"o":"m 372 1142 l 308 1029 q 199 1079 253 1054 q 96 1139 131 1113 q 13 1190 68 1160 q -92 1254 -49 1222 l -7 1356 q 176 1240 67 1299 q 372 1142 275 1190 z "},"a":{"ha":592,"x_min":33,"x_max":567,"o":"m 567 18 l 431 4 l 424 67 q 243 -14 349 -14 q 92 51 150 -14 q 33 213 33 117 q 99 380 33 317 q 268 443 165 443 q 404 419 346 443 q 348 533 399 479 q 239 588 297 588 q 191 581 196 588 q 176 507 186 575 l 42 533 q 96 679 60 640 q 239 725 138 725 q 518 504 426 725 q 540 440 540 450 q 539 356 540 411 q 538 271 538 300 q 547 156 538 228 q 567 18 554 103 m 383 276 q 268 306 339 306 q 191 282 211 306 q 171 199 171 258 q 233 125 171 125 q 333 172 289 125 q 383 276 378 218 z "},"b":{"ha":624,"x_min":29,"x_max":604,"o":"m 604 308 q 476 79 604 174 q 226 -6 361 -6 q 165 31 196 -6 l 165 13 l 29 13 q 43 303 29 110 q 57 594 57 497 q 32 1036 57 821 l 167 1053 q 193 682 190 847 q 299 692 239 692 q 517 558 421 692 q 604 308 604 436 m 468 308 q 408 475 468 397 q 268 553 347 553 q 192 532 229 553 q 171 200 189 400 q 194 161 182 181 q 226 136 210 136 q 381 181 304 136 q 468 308 468 233 z "},"c":{"ha":582,"x_min":15,"x_max":594,"o":"m 594 633 l 525 515 q 411 569 457 557 q 286 582 365 582 q 189 479 231 582 q 151 314 151 390 q 201 182 151 239 q 322 125 250 125 q 413 147 379 125 q 483 215 435 161 l 582 121 q 468 21 517 50 q 322 -14 406 -14 q 105 85 194 -14 q 15 314 15 183 q 82 574 15 450 q 286 719 160 719 q 594 633 451 719 z "},"d":{"ha":719,"x_min":46,"x_max":656,"o":"m 656 217 l 654 -8 l 518 -8 l 518 57 q 299 -17 419 -17 q 110 75 181 -17 q 46 282 46 160 q 92 472 46 365 q 189 640 132 568 q 301 703 239 703 l 417 703 q 508 689 469 703 q 500 1038 500 1071 l 636 1038 q 641 776 636 950 q 646 517 646 603 q 651 368 646 468 q 656 217 656 268 m 515 372 q 497 536 515 458 q 329 564 457 564 l 307 564 q 255 495 290 547 q 208 418 219 443 q 182 282 182 364 q 294 126 182 126 q 450 202 385 126 q 515 372 515 278 z "},"e":{"ha":640,"x_min":32,"x_max":604,"o":"m 604 390 q 576 301 604 328 q 488 274 549 274 q 328 276 431 274 q 168 281 217 281 q 247 160 175 200 q 393 125 307 125 q 538 179 426 125 l 590 51 q 494 10 543 31 q 393 -14 436 -14 q 138 68 235 -14 q 32 314 32 156 q 131 590 32 468 q 388 719 236 719 q 563 608 507 719 q 604 390 604 524 m 465 411 l 453 519 q 388 582 439 582 q 259 535 318 582 q 181 418 200 488 q 306 414 219 418 q 431 411 386 411 q 465 411 449 411 z "},"f":{"ha":556,"x_min":-26,"x_max":594,"o":"m 594 890 q 507 892 553 890 q 439 893 461 893 q 310 836 343 893 q 276 690 286 799 q 497 697 408 696 l 497 557 q 271 549 413 557 l 271 525 q 275 263 271 438 q 279 1 279 89 l 143 1 q 139 274 143 85 q 135 546 135 450 q -17 543 29 547 l -26 683 q 140 686 38 689 q 401 1036 169 1036 q 498 1033 433 1036 q 594 1031 563 1031 l 594 890 z "},"g":{"ha":732,"x_min":50,"x_max":674,"o":"m 674 119 q 629 -203 674 -89 q 386 -375 561 -375 q 231 -346 325 -375 q 99 -271 124 -312 q 69 -172 78 -237 q 61 -67 65 -119 l 197 -47 q 213 -187 200 -110 q 297 -218 256 -203 q 386 -235 349 -235 q 536 64 533 -235 q 349 -17 447 -17 q 139 78 228 -17 q 50 297 50 174 q 140 560 50 464 q 378 692 214 639 q 432 700 404 700 l 461 700 q 533 640 504 668 l 533 674 l 669 674 q 672 397 669 581 q 674 119 674 213 m 529 358 q 486 469 529 413 q 404 558 444 514 q 363 543 399 557 q 239 456 286 514 q 186 311 186 392 q 229 182 186 235 q 349 125 276 125 q 486 199 438 125 q 529 358 529 263 z "},"h":{"ha":624,"x_min":39,"x_max":575,"o":"m 575 203 q 574 94 575 167 q 572 -14 572 22 l 438 -14 q 441 129 438 33 q 444 274 444 225 q 367 572 444 572 q 197 514 242 572 q 199 382 199 453 q 197 186 199 317 q 196 -10 196 56 l 61 -10 q 61 161 61 47 q 63 333 63 276 q 61 489 63 419 l 54 493 l 60 510 q 47 757 58 581 q 39 1006 39 915 l 174 1006 q 189 682 174 894 q 378 713 265 713 q 575 203 575 713 z "},"i":{"ha":242,"x_min":35,"x_max":197,"o":"m 194 844 l 140 829 q 78 799 128 824 l 35 929 q 171 981 110 965 l 194 844 m 194 8 l 79 8 q 81 111 79 43 q 81 214 81 179 q 69 442 81 344 q 63 581 64 488 q 54 721 61 674 l 168 743 q 175 605 174 697 q 182 467 176 513 q 194 8 197 342 z "},"j":{"ha":628,"x_min":33,"x_max":610,"o":"m 610 829 q 526 794 547 810 l 450 736 l 368 850 q 461 918 399 872 q 568 964 499 943 l 610 829 m 594 251 q 536 -135 594 33 q 267 -378 449 -378 q 67 -306 113 -378 q 33 -68 33 -253 l 169 -68 q 168 -124 169 -86 q 168 -178 168 -160 q 190 -231 168 -221 q 267 -236 204 -236 q 431 -29 382 -236 q 461 269 461 97 q 452 390 461 310 q 443 510 443 469 l 443 653 l 579 653 l 579 515 q 587 383 579 471 q 594 251 594 296 z "},"k":{"ha":585,"x_min":-3,"x_max":635,"o":"m 635 61 l 519 -18 q 368 149 458 76 q 185 272 333 175 q 153 -49 189 128 l 19 -19 q 47 260 47 118 q 22 638 47 386 q -3 1018 -3 890 l 133 1018 q 167 531 133 842 q 315 635 242 583 q 444 764 399 699 l 553 676 q 396 535 497 604 q 228 414 256 438 q 450 263 419 288 q 635 61 557 179 z "},"l":{"ha":231,"x_min":53,"x_max":197,"o":"m 197 1026 q 178 869 194 971 q 165 740 165 788 l 165 7 l 53 7 l 53 747 q 67 892 53 801 q 85 1036 82 994 l 197 1026 z "},"m":{"ha":950,"x_min":42,"x_max":897,"o":"m 897 181 q 890 -19 897 111 l 751 -14 q 760 263 760 142 q 696 558 760 469 q 675 588 675 588 q 607 517 653 588 q 554 424 572 464 q 546 260 546 322 q 540 127 546 215 q 533 -6 533 39 l 394 -6 q 404 172 394 54 q 414 349 414 290 q 357 574 414 514 q 332 597 335 597 q 258 566 299 597 q 210 501 217 535 q 202 465 207 485 q 181 440 197 446 q 175 300 175 381 q 178 156 175 253 q 181 11 181 60 l 42 11 l 42 447 q 51 538 42 461 l 56 721 l 194 715 l 194 690 q 324 736 260 736 q 499 613 432 736 q 675 725 583 725 q 897 181 897 725 z "},"n":{"ha":694,"x_min":46,"x_max":643,"o":"m 643 157 q 643 72 643 129 q 642 -14 642 15 l 506 -14 q 507 69 506 14 q 508 150 508 124 q 374 590 508 590 q 182 461 289 590 q 181 360 182 436 q 179 258 179 294 q 204 15 179 122 l 72 -17 q 46 243 46 92 l 46 711 l 182 711 l 182 657 q 374 728 272 728 q 643 157 643 728 z "},"o":{"ha":654,"x_min":46,"x_max":619,"o":"m 619 324 q 569 94 619 183 q 376 -18 506 -18 q 342 -18 365 -18 q 307 -17 319 -17 q 114 117 192 -17 q 46 357 46 232 q 96 571 46 496 q 281 688 151 653 q 407 711 372 711 q 486 669 460 711 q 619 324 619 575 m 485 311 q 467 449 485 375 q 414 557 446 539 l 386 572 q 314 553 383 572 q 201 483 228 529 q 182 357 182 447 q 219 210 182 289 q 307 122 260 122 q 342 121 319 122 q 376 119 364 119 q 485 311 485 119 z "},"p":{"ha":706,"x_min":39,"x_max":682,"o":"m 682 281 q 554 49 682 131 q 288 -19 447 -19 q 197 1 243 -19 l 194 -401 l 57 -401 q 62 -6 57 -269 q 67 389 67 257 q 39 667 67 554 l 172 700 l 186 642 q 318 679 261 679 q 478 632 379 679 q 682 281 682 535 m 544 281 q 503 439 544 382 q 421 507 474 476 q 319 538 364 538 q 203 489 264 538 l 203 472 q 201 319 203 419 q 199 165 199 214 q 288 122 251 122 q 453 153 383 122 q 544 281 544 194 z "},"q":{"ha":700,"x_min":26,"x_max":642,"o":"m 642 -111 q 625 -410 640 -274 l 489 -392 q 504 -99 504 -268 l 504 3 q 385 -19 449 -19 q 128 89 229 -19 q 26 360 26 197 q 133 619 26 531 q 400 700 231 700 q 489 696 454 700 l 489 718 l 626 718 q 633 442 626 626 q 640 167 640 258 l 640 -111 l 642 -111 m 504 163 l 504 163 q 493 506 504 303 q 465 557 469 522 q 371 560 438 560 q 218 508 275 560 q 161 358 161 456 q 225 190 161 258 q 385 122 289 122 q 504 163 432 122 z "},"r":{"ha":536,"x_min":4,"x_max":558,"o":"m 558 649 l 469 543 q 378 603 407 603 q 243 576 307 603 q 151 481 163 542 q 150 414 147 458 q 153 346 151 379 l 156 -12 l 19 -12 q 17 468 19 26 l 4 472 l 17 504 l 17 711 l 151 711 l 151 685 q 378 742 244 742 q 558 649 456 742 z "},"s":{"ha":650,"x_min":29,"x_max":614,"o":"m 614 594 l 514 501 q 419 575 463 560 q 301 588 386 588 q 238 579 257 588 q 207 526 207 565 q 296 465 207 482 q 496 418 457 438 q 611 206 611 360 q 542 52 611 118 q 386 -14 474 -14 q 29 163 214 -14 l 122 264 q 386 125 268 125 q 445 150 415 125 q 475 206 475 175 q 452 289 475 264 q 374 319 429 314 q 265 331 338 322 q 71 526 71 365 q 301 725 71 725 q 474 701 414 725 q 614 594 542 675 z "},"t":{"ha":601,"x_min":11,"x_max":601,"o":"m 601 29 q 438 -17 499 -17 q 207 86 276 -17 q 150 343 150 172 q 153 443 150 379 q 157 543 156 515 q 11 564 92 549 l 35 701 q 157 682 114 686 l 157 869 l 293 869 l 293 679 q 563 710 379 682 l 583 574 q 293 539 386 542 q 288 418 292 504 q 285 297 285 342 q 317 168 285 208 q 438 124 353 124 q 549 157 471 124 l 601 29 z "},"u":{"ha":718,"x_min":47,"x_max":661,"o":"m 661 463 q 626 208 661 306 q 471 10 582 85 q 390 -22 422 -22 q 90 261 168 -22 q 47 718 47 418 l 183 718 q 206 371 183 490 q 385 117 250 122 q 494 242 463 164 q 519 408 519 304 l 519 718 l 656 718 q 658 590 656 675 q 661 463 661 506 z "},"v":{"ha":703,"x_min":29,"x_max":663,"o":"m 663 701 q 568 431 618 558 q 474 217 536 347 q 358 21 394 54 q 272 -33 349 11 q 201 215 211 185 q 113 457 158 357 q 29 735 47 603 l 167 754 q 236 515 181 638 q 332 251 285 408 q 442 482 375 339 q 536 749 469 567 l 663 701 z "},"w":{"ha":947,"x_min":1,"x_max":917,"o":"m 917 726 q 893 556 914 621 q 831 401 861 478 l 778 268 q 771 254 774 260 l 772 258 q 699 118 733 167 q 656 60 678 89 q 633 -15 644 40 l 538 94 q 436 328 501 135 q 281 -68 411 243 q 235 89 253 67 q 163 240 192 142 q 110 400 124 371 q 1 724 44 540 l 138 756 q 235 461 176 586 q 289 307 246 439 q 418 838 369 565 q 614 247 501 588 q 721 485 675 360 q 778 732 776 638 l 917 726 z "},"x":{"ha":618,"x_min":0,"x_max":601,"o":"m 601 61 l 483 -7 q 292 260 426 94 q 114 -26 232 164 l 0 47 l 203 374 q 6 663 139 471 l 113 747 q 282 496 169 664 q 451 751 340 581 l 568 682 q 369 382 529 615 l 481 243 q 601 61 550 151 z "},"y":{"ha":704,"x_min":19,"x_max":665,"o":"m 665 707 q 613 521 654 636 q 435 39 538 314 l 447 24 l 424 10 q 343 -197 364 -146 q 253 -400 296 -312 l 131 -337 q 279 31 199 -196 q 138 379 210 153 q 83 519 124 424 q 19 683 42 614 l 150 726 q 208 574 167 672 q 269 421 253 471 q 342 208 290 349 l 439 446 q 531 729 517 640 l 665 707 z "},"z":{"ha":685,"x_min":-8,"x_max":663,"o":"m 663 28 q 310 17 393 28 q 288 14 304 15 l 224 4 q 133 -4 169 -4 l -8 -4 q 138 199 81 114 q 290 390 183 267 q 440 581 396 514 q 399 579 419 579 q 351 584 383 579 q 304 589 319 589 l 47 589 l 47 726 q 215 724 103 726 q 382 722 326 722 q 650 738 510 722 q 547 503 614 606 q 390 303 501 432 q 271 151 317 217 q 568 165 388 165 l 663 165 l 663 28 z "},"{":{"ha":471,"x_min":-46,"x_max":504,"o":"m 504 -175 q 403 -174 453 -175 q 303 -158 328 -169 q 246 -42 246 -131 q 251 40 246 -15 q 256 122 256 94 q 147 326 256 285 q -46 429 113 339 q 199 503 122 469 q 233 515 217 511 q 219 629 232 529 q 211 744 211 699 q 265 915 211 868 q 436 964 311 954 l 447 824 q 354 789 367 818 q 347 686 347 771 q 358 579 347 650 q 369 472 369 508 q 313 394 369 425 q 390 58 390 304 q 385 11 390 42 q 379 -33 381 -19 q 504 -35 422 -35 l 504 -175 z "},"|":{"ha":275,"x_min":43,"x_max":210,"o":"m 210 658 q 201 461 210 576 l 190 267 q 189 163 189 226 q 190 57 190 74 q 154 -224 190 -86 l 43 -181 q 72 22 72 -74 q 74 213 74 31 q 90 518 74 224 q 93 744 96 608 q 90 971 90 971 l 207 971 q 208 814 207 918 q 210 658 210 710 z "},"}":{"ha":583,"x_min":17,"x_max":572,"o":"m 572 435 q 449 317 518 376 q 379 274 424 303 q 364 215 364 261 q 369 145 364 192 q 375 75 375 99 q 276 -108 375 -39 q 88 -214 188 -158 l 17 -93 q 167 -15 71 -67 q 240 75 240 28 q 235 150 240 100 q 231 225 231 200 q 274 363 231 313 q 193 456 193 382 q 199 527 193 479 q 206 599 206 575 q 144 771 206 692 q 111 811 131 790 q 43 824 107 814 l 61 963 q 168 940 144 951 q 247 864 199 925 q 344 628 344 743 q 331 499 344 585 q 435 478 378 496 q 572 435 471 467 z "},"~":{"ha":768,"x_min":24,"x_max":717,"o":"m 717 463 q 643 313 674 354 q 506 232 586 232 q 393 269 444 232 q 322 340 369 288 q 268 379 288 379 q 204 335 235 379 q 144 233 199 328 l 24 294 q 117 439 96 415 q 268 506 176 506 q 379 468 329 506 q 449 397 397 453 q 506 358 482 358 q 588 506 529 358 l 717 463 z "},"¡":{"ha":258,"x_min":63,"x_max":224,"o":"m 224 711 q 68 703 138 703 l 68 843 q 214 850 133 843 l 224 711 m 193 608 q 185 234 193 483 q 178 -140 178 -15 l 63 -140 q 70 234 63 -15 q 78 608 78 483 l 193 608 z "},"£":{"ha":657,"x_min":24,"x_max":647,"o":"m 647 -4 q 99 -14 256 -4 l 76 119 q 179 194 151 139 q 207 311 201 240 q 210 431 208 328 l 24 431 l 24 571 l 222 571 q 324 831 247 714 q 543 974 419 974 l 611 974 l 611 833 l 543 833 q 422 728 482 833 q 357 564 375 644 q 461 565 394 564 q 565 567 536 567 l 565 428 q 456 425 535 428 q 346 424 386 424 l 346 369 q 301 135 346 222 q 463 136 376 136 l 647 136 l 647 -4 z "},"¥":{"ha":586,"x_min":3,"x_max":632,"o":"m 632 958 q 514 690 601 815 q 363 483 463 621 l 376 454 l 347 440 l 347 424 q 439 417 371 424 q 531 410 496 410 l 531 269 q 347 281 442 269 l 347 253 q 472 257 389 257 l 472 117 q 347 113 388 117 l 347 -14 l 211 -14 l 211 93 q 69 89 161 88 l 69 229 q 211 233 163 229 l 211 285 l 50 285 l 50 425 l 211 425 l 211 479 q 83 678 168 544 q 3 939 13 794 l 139 949 q 186 768 146 844 q 289 617 200 742 q 414 792 392 756 q 499 989 478 892 l 632 958 z "},"¦":{"ha":228,"x_min":49,"x_max":176,"o":"m 176 729 q 172 656 176 704 q 168 586 168 608 l 168 390 l 58 390 l 58 532 q 61 614 58 564 q 67 694 65 676 q 67 786 68 729 q 64 876 64 857 l 64 954 l 174 954 q 175 842 174 917 q 176 729 176 767 m 172 -243 l 63 -253 q 49 118 49 8 q 52 226 49 154 q 56 333 56 297 l 165 333 q 162 226 165 297 q 158 118 158 154 q 172 -243 158 13 z "},"§":{"ha":658,"x_min":57,"x_max":633,"o":"m 633 782 l 496 776 q 493 844 496 821 q 476 851 493 850 q 432 854 436 853 q 338 860 386 860 q 249 764 249 860 q 319 679 249 732 q 418 614 368 647 q 502 540 449 593 q 585 465 556 488 l 607 465 l 607 431 q 593 279 607 331 q 508 160 571 194 q 551 119 525 143 q 588 19 588 75 q 501 -143 588 -87 q 322 -192 429 -192 q 146 -147 206 -192 q 57 17 86 -101 l 189 51 q 232 -36 206 -19 q 326 -50 253 -50 q 451 19 451 -50 q 361 139 451 74 l 175 274 q 67 489 67 371 q 158 672 67 585 q 113 764 113 732 q 176 933 113 867 q 339 1000 240 1000 q 518 981 458 1000 q 629 853 625 949 l 633 782 m 471 375 q 386 464 433 406 q 256 574 357 500 q 203 489 203 526 q 274 349 203 425 q 408 272 346 272 q 471 375 468 272 z "},"¨":{"ha":463,"x_min":-42,"x_max":497,"o":"m 497 1065 q 272 1038 429 1060 l 254 1188 q 483 1217 336 1199 l 497 1065 m 201 1065 q -24 1038 132 1060 l -42 1188 q 188 1217 39 1199 l 201 1065 z "},"©":{"ha":892,"x_min":33,"x_max":860,"o":"m 860 433 q 806 207 860 306 q 633 58 746 96 q 488 24 533 24 q 268 69 376 24 q 96 208 146 121 q 33 508 33 317 q 293 869 33 821 q 369 889 324 876 l 500 889 l 500 886 q 768 735 667 878 q 860 433 860 606 m 721 431 q 663 643 721 550 q 490 747 597 747 l 422 747 l 422 750 q 227 689 285 746 q 169 494 169 632 q 217 276 169 357 q 339 190 247 224 q 488 163 417 163 q 561 181 504 163 q 631 207 618 199 q 721 431 721 269 m 610 218 q 479 200 535 200 q 292 258 363 200 q 215 436 215 321 q 289 622 215 553 q 479 690 363 690 l 599 690 l 599 551 l 488 551 q 354 438 354 551 q 474 336 354 336 q 576 353 511 336 l 610 218 z "},"ª":{"ha":486,"x_min":44,"x_max":440,"o":"m 440 640 q 437 539 440 606 q 433 421 433 472 l 301 421 l 301 440 q 222 424 257 424 q 44 567 44 424 q 101 715 44 644 q 232 786 157 786 q 300 768 263 786 q 249 828 288 828 q 179 819 222 828 q 110 810 128 811 l 97 944 q 172 957 118 946 q 246 967 219 967 q 440 640 440 967 m 306 614 q 232 650 228 650 q 195 617 215 650 q 175 565 175 585 q 181 558 175 560 q 197 558 185 557 q 222 558 217 558 q 306 590 236 558 l 306 614 z "},"«":{"ha":599,"x_min":36,"x_max":549,"o":"m 549 725 l 532 658 q 383 415 521 613 q 410 374 383 417 q 540 58 475 274 l 411 17 q 272 333 358 192 q 247 414 247 376 q 317 557 247 465 q 401 690 393 656 l 417 758 l 549 725 m 344 92 l 228 22 q 160 176 204 60 q 78 326 121 274 q 36 428 36 378 q 91 555 36 460 q 150 688 146 650 l 158 756 l 290 743 q 253 574 281 640 q 174 426 247 561 q 226 354 193 401 q 303 172 283 246 q 344 92 307 153 z "},"¬":{"ha":736,"x_min":29,"x_max":710,"o":"m 710 -185 l 579 -225 q 549 -60 549 -139 q 538 94 549 -53 l 342 90 q 186 99 290 90 q 29 108 82 108 l 29 242 l 101 242 q 217 233 140 242 q 333 224 294 224 q 469 227 379 224 q 603 231 558 231 l 672 231 q 679 70 672 176 q 686 -90 686 -36 q 710 -185 686 -117 z "},"®":{"ha":782,"x_min":32,"x_max":736,"o":"m 736 592 q 642 344 736 447 q 401 238 544 238 q 153 343 269 238 q 32 583 32 453 q 103 833 32 689 q 228 926 135 903 q 390 942 286 942 l 426 942 l 440 922 l 442 925 q 561 885 518 907 q 660 803 615 857 q 736 592 736 711 m 385 668 l 382 665 q 371 671 378 664 q 361 676 364 678 l 332 658 q 342 640 328 656 q 361 624 357 625 l 404 606 l 385 668 m 596 582 q 554 721 596 660 q 435 789 508 789 q 419 789 429 789 q 404 788 410 788 q 368 804 378 788 q 228 779 264 803 q 169 583 169 638 q 226 461 169 518 l 226 775 l 364 775 l 364 767 q 475 732 432 767 q 524 628 524 694 q 485 536 524 569 q 558 453 510 507 q 596 582 596 504 m 365 503 l 411 438 l 358 438 l 365 503 z "},"°":{"ha":547,"x_min":36,"x_max":496,"o":"m 496 711 q 433 571 496 622 q 281 519 371 519 q 107 582 178 519 q 36 747 36 644 q 101 897 36 819 q 238 974 165 974 q 420 896 344 974 q 496 711 496 818 m 363 724 q 314 808 363 775 q 217 840 272 838 q 169 747 169 786 q 207 675 169 701 q 286 651 239 651 q 363 724 363 651 z "},"±":{"ha":628,"x_min":18,"x_max":624,"o":"m 588 -8 l 35 -8 l 35 132 l 251 132 q 250 376 251 268 q 232 378 244 376 q 213 381 219 381 q 126 368 185 381 q 35 351 61 353 l 18 486 q 249 514 86 497 l 247 754 l 383 754 q 385 524 383 621 q 624 543 594 543 l 624 406 q 386 386 597 406 l 388 132 l 588 132 l 588 -8 z "},"²":{"ha":465,"x_min":33,"x_max":421,"o":"m 421 528 q 228 526 357 528 q 33 524 99 524 q 111 650 60 578 q 207 763 168 729 q 261 840 261 808 q 246 854 261 854 q 167 739 185 854 l 38 760 q 244 989 75 989 q 347 944 303 989 q 392 840 392 899 q 297 656 392 743 q 359 658 318 656 q 421 661 400 661 l 421 528 z "},"³":{"ha":438,"x_min":39,"x_max":394,"o":"m 394 643 q 340 542 394 583 q 225 501 285 501 q 44 581 181 501 l 106 701 q 167 663 136 682 q 232 639 207 639 q 264 651 250 639 q 258 697 264 686 q 224 718 250 718 q 173 714 207 718 q 122 710 139 710 l 61 710 q 144 782 103 746 q 224 863 203 835 q 185 851 199 863 q 143 796 179 846 l 39 876 q 118 965 85 942 q 229 997 163 997 q 365 885 365 997 q 338 781 365 825 q 394 643 394 722 z "},"´":{"ha":325,"x_min":-106,"x_max":357,"o":"m 357 1254 q 254 1190 314 1222 q 72 1083 196 1153 q -43 1029 39 1068 l -106 1142 q 89 1240 -8 1190 q 272 1356 200 1299 l 357 1254 z "},"¶":{"ha":811,"x_min":42,"x_max":743,"o":"m 743 668 q 739 421 743 574 q 736 200 738 311 q 717 -21 733 68 l 581 8 q 596 283 596 82 q 601 474 596 343 q 606 663 606 597 l 604 828 l 561 828 q 551 419 560 751 q 544 11 544 169 l 407 11 l 407 339 q 410 397 407 361 q 414 456 413 443 q 324 449 365 449 q 126 506 203 449 q 42 689 42 569 q 78 837 42 765 q 181 940 115 908 q 508 978 258 978 l 508 969 l 561 969 l 561 967 l 742 967 l 743 668 z "},"·":{"ha":326,"x_min":49,"x_max":269,"o":"m 269 260 q 67 232 206 254 l 49 382 q 256 411 124 393 l 269 260 z "},"¸":{"ha":314,"x_min":11,"x_max":314,"o":"m 314 -249 q 268 -376 314 -324 q 147 -433 221 -433 q 74 -401 118 -433 q 11 -349 71 -399 l 79 -239 q 157 -297 133 -276 q 186 -251 186 -290 q 150 -219 186 -231 q 49 -190 124 -211 q 104 -90 69 -153 q 124 10 121 -60 l 251 3 q 229 -107 249 -56 q 314 -249 314 -142 z "},"¹":{"ha":236,"x_min":74,"x_max":188,"o":"m 188 767 q 185 717 188 750 q 182 667 182 683 l 182 524 l 75 524 q 78 704 74 654 q 81 774 81 750 q 79 845 81 797 q 78 918 78 893 l 78 990 l 185 990 q 186 878 185 953 q 188 767 188 804 z "},"º":{"ha":610,"x_min":43,"x_max":568,"o":"m 568 679 q 476 472 568 563 q 267 382 385 382 q 99 468 160 382 q 43 656 43 544 q 113 850 43 769 q 144 903 138 894 q 197 935 167 931 l 224 954 l 278 954 q 485 879 403 954 q 568 679 568 804 m 433 679 q 395 775 433 733 q 303 817 357 817 q 249 803 275 817 q 190 736 219 769 q 182 642 182 718 q 267 517 182 517 q 381 568 328 517 q 433 679 433 619 z "},"»":{"ha":556,"x_min":29,"x_max":518,"o":"m 518 432 q 453 242 518 349 q 394 108 394 144 l 394 40 l 260 40 l 260 108 q 319 279 260 175 q 382 428 379 383 q 332 501 368 449 q 199 728 293 560 l 322 788 q 432 600 333 764 q 518 432 518 458 m 333 349 q 268 199 333 299 q 183 63 194 89 l 157 -1 l 33 50 q 172 304 89 189 q 197 346 185 319 q 132 457 181 382 q 68 569 86 528 q 29 738 39 636 l 161 753 l 168 683 q 254 506 175 628 q 333 349 333 385 z "},"¼":{"ha":963,"x_min":26,"x_max":954,"o":"m 954 201 q 813 169 889 185 l 813 22 l 674 22 l 674 143 q 651 149 667 143 q 626 154 635 154 q 517 146 583 154 q 407 132 421 133 q 551 453 450 322 q 810 693 631 557 q 811 313 810 489 q 921 338 868 325 l 954 201 m 672 286 l 672 343 q 631 289 658 325 q 672 286 675 286 m 201 449 l 61 449 l 61 944 l 201 944 l 201 449 m 700 947 l 694 878 q 633 733 689 811 q 535 607 583 669 q 411 390 501 561 q 278 168 375 322 q 151 -51 190 31 l 26 10 q 151 219 68 96 q 264 401 232 339 q 506 800 372 617 q 550 872 542 847 q 563 958 557 893 l 700 947 z "},"½":{"ha":886,"x_min":7,"x_max":882,"o":"m 882 78 q 625 35 817 60 q 399 6 574 28 q 476 157 449 117 q 589 278 503 192 q 658 404 658 346 q 657 418 658 411 q 568 390 603 417 q 504 317 547 374 l 394 401 q 513 519 458 486 q 672 558 576 558 q 794 394 794 558 q 689 181 794 289 q 847 213 760 190 l 882 78 m 226 963 q 222 728 226 885 q 218 492 218 571 l 79 492 q 83 728 79 571 q 86 963 86 885 l 226 963 m 679 929 q 582 733 649 807 q 468 596 489 629 q 131 -29 376 444 l 7 38 l 178 361 q 347 665 276 549 q 458 803 368 700 q 546 965 519 871 l 679 929 z "},"¾":{"ha":1036,"x_min":0,"x_max":1024,"o":"m 1024 213 l 974 213 q 914 204 943 213 q 917 25 917 142 l 776 25 q 775 185 776 129 q 661 178 742 186 q 525 169 581 169 q 561 313 543 279 q 626 407 589 351 q 717 536 704 519 q 861 667 757 583 q 904 346 892 474 q 971 353 933 353 l 1024 353 l 1024 213 m 765 324 q 763 360 764 342 q 736 322 751 343 q 765 324 750 324 m 781 911 q 751 808 764 836 q 689 724 733 767 q 551 525 621 657 q 479 392 490 408 q 174 -106 354 197 l 53 -39 q 189 193 103 57 q 332 421 260 307 q 293 393 315 406 q 115 328 278 385 l 69 461 q 190 497 113 474 q 244 543 244 517 q 186 633 244 601 q 0 708 124 660 q 161 761 113 735 q 221 818 222 793 l 221 821 q 149 803 179 819 q 86 760 136 797 l 1 872 q 214 963 122 963 q 319 924 276 963 q 361 824 361 885 q 318 713 361 763 q 385 543 385 642 q 379 501 385 521 q 478 664 449 617 q 589 817 535 753 q 644 946 626 860 l 781 911 z "},"¿":{"ha":531,"x_min":15,"x_max":533,"o":"m 533 740 q 331 718 438 715 l 331 857 q 504 876 424 857 l 533 740 m 514 -100 q 406 -143 475 -115 q 304 -164 351 -164 q 108 -97 193 -164 q 15 89 15 -25 q 106 349 15 254 q 353 451 193 439 q 361 669 361 642 l 496 669 q 491 492 496 610 q 486 314 486 374 q 242 281 306 314 q 150 89 150 232 q 204 4 150 36 q 304 -24 250 -24 q 468 33 335 -24 l 514 -100 z "},"À":{"ha":696,"x_min":28,"x_max":688,"o":"m 693 31 l 564 -17 q 458 314 500 161 l 226 315 q 193 151 217 281 q 150 -11 174 50 l 22 42 q 75 240 49 110 q 122 440 103 381 q 210 647 131 464 q 271 836 256 751 q 296 1040 274 851 q 468 711 361 940 q 528 582 485 675 q 693 31 579 397 m 421 454 q 397 539 408 503 q 353 632 393 551 q 276 456 328 574 l 421 454 m 594 1142 l 531 1029 q 421 1079 475 1054 q 318 1139 353 1113 q 235 1190 290 1160 q 131 1254 174 1222 l 215 1356 q 399 1240 289 1299 q 594 1142 497 1190 z "},"Á":{"ha":696,"x_min":28,"x_max":688,"o":"m 693 31 l 564 -17 q 458 314 500 161 l 226 315 q 193 151 217 281 q 150 -11 174 50 l 22 42 q 75 240 49 110 q 122 440 103 381 q 210 647 131 464 q 271 836 256 751 q 296 1040 274 851 q 468 711 361 940 q 528 582 485 675 q 693 31 579 397 m 421 454 q 397 539 408 503 q 353 632 393 551 q 276 456 328 574 l 421 454 m 674 1254 q 571 1190 631 1222 q 389 1083 513 1153 q 274 1029 356 1068 l 211 1142 q 406 1240 308 1190 q 589 1356 517 1299 l 674 1254 z "},"Â":{"ha":696,"x_min":28,"x_max":688,"o":"m 693 31 l 564 -17 q 458 314 500 161 l 226 315 q 193 151 217 281 q 150 -11 174 50 l 22 42 q 75 240 49 110 q 122 440 103 381 q 210 647 131 464 q 271 836 256 751 q 296 1040 274 851 q 468 711 361 940 q 528 582 485 675 q 693 31 579 397 m 421 454 q 397 539 408 503 q 353 632 393 551 q 276 456 328 574 l 421 454 m 629 1039 l 515 968 q 432 1076 489 1008 q 346 1185 371 1150 q 197 996 296 1121 l 89 1076 q 218 1242 197 1214 q 328 1422 285 1333 q 432 1299 372 1378 q 529 1171 501 1201 q 629 1039 594 1094 z "},"Ã":{"ha":696,"x_min":28,"x_max":688,"o":"m 693 31 l 564 -17 q 458 314 500 161 l 226 315 q 193 151 217 281 q 150 -11 174 50 l 22 42 q 75 240 49 110 q 122 440 103 381 q 210 647 131 464 q 271 836 256 751 q 296 1040 274 851 q 468 711 361 940 q 528 582 485 675 q 693 31 579 397 m 421 454 q 397 539 408 503 q 353 632 393 551 q 276 456 328 574 l 421 454 m 686 1275 q 643 1136 686 1200 q 524 1065 596 1065 q 393 1110 450 1065 q 307 1185 365 1135 q 233 1221 269 1218 q 203 1071 208 1185 l 65 1079 q 224 1353 82 1353 q 354 1314 293 1353 q 443 1238 378 1299 q 518 1193 489 1196 q 549 1339 550 1215 l 686 1339 l 686 1275 z "},"Ä":{"ha":689,"x_min":21,"x_max":681,"o":"m 686 31 l 557 -17 q 451 314 493 161 l 219 315 q 186 151 210 281 q 143 -11 167 50 l 15 42 q 68 240 42 110 q 115 440 96 381 q 203 647 124 464 q 264 836 249 751 q 289 1040 267 851 q 461 711 354 940 q 521 582 478 675 q 686 31 572 397 m 414 454 q 390 539 401 503 q 346 632 386 551 q 269 456 321 574 l 414 454 m 617 1065 q 392 1038 549 1060 l 374 1188 q 603 1217 456 1199 l 617 1065 m 321 1065 q 96 1038 251 1060 l 78 1188 q 307 1217 158 1199 l 321 1065 z "},"Å":{"ha":696,"x_min":28,"x_max":688,"o":"m 693 31 l 564 -17 q 458 314 500 161 l 226 315 q 193 151 217 281 q 150 -11 174 50 l 22 42 q 75 240 49 110 q 122 440 103 381 q 210 647 131 464 q 271 836 256 751 q 296 1040 274 851 q 468 711 361 940 q 528 582 485 675 q 693 31 579 397 m 421 454 q 397 539 408 503 q 353 632 393 551 q 276 456 328 574 l 421 454 m 675 1204 q 613 1023 675 1093 q 440 953 551 953 q 267 1007 343 953 q 182 1161 182 1068 q 236 1325 182 1254 q 388 1404 297 1404 l 400 1404 q 426 1409 408 1404 q 453 1414 444 1414 q 612 1356 549 1414 q 675 1204 675 1297 m 540 1204 q 465 1276 540 1276 q 426 1272 451 1276 q 388 1268 400 1268 q 333 1229 356 1268 q 317 1161 317 1196 q 367 1104 317 1122 q 450 1090 401 1090 q 540 1204 540 1090 z "},"Æ":{"ha":1124,"x_min":-57,"x_max":1140,"o":"m 1140 850 q 660 828 965 844 q 657 750 660 807 q 654 671 654 700 q 658 615 654 653 q 661 556 661 576 q 1015 606 840 551 l 1057 471 q 656 417 864 413 q 651 160 651 257 l 651 138 q 1026 183 881 132 l 1074 51 q 674 -3 921 -3 q 508 -35 585 -3 q 507 308 501 154 q 269 329 421 317 q 92 15 217 221 l -57 15 q 39 168 4 99 q 100 297 58 211 q 307 617 158 418 q 519 919 460 821 l 519 951 l 521 951 l 521 953 l 543 956 l 569 976 l 594 969 l 593 971 q 614 965 606 972 q 860 981 704 978 q 1131 990 1039 985 l 1140 850 m 515 557 q 501 639 515 574 q 365 464 449 571 l 513 451 q 515 557 515 524 z "},"Ç":{"ha":640,"x_min":8,"x_max":671,"o":"m 671 765 l 539 724 q 507 803 525 786 q 433 819 489 819 l 376 819 q 274 802 300 819 q 215 713 249 785 q 146 440 146 560 q 207 213 146 300 q 410 114 276 114 q 494 149 447 114 q 567 208 503 154 l 653 100 q 561 25 588 43 q 456 -24 506 -14 q 435 -86 450 -46 q 525 -236 525 -122 q 475 -376 525 -318 q 347 -433 425 -433 q 272 -401 313 -433 l 200 -343 l 276 -228 q 358 -290 333 -267 q 389 -242 389 -285 q 351 -206 389 -218 q 243 -175 324 -197 q 286 -99 264 -136 q 318 -18 313 -49 q 83 150 165 14 q 8 440 8 272 q 76 733 8 572 q 260 951 154 919 q 347 961 294 961 q 542 943 494 961 q 671 765 631 911 z "},"È":{"ha":547,"x_min":-51,"x_max":563,"o":"m 564 850 q 97 828 393 844 q 94 556 94 693 q 129 556 113 556 q 443 606 282 556 l 483 472 q 94 417 296 413 l 90 138 q 454 183 311 133 l 499 51 q 293 6 396 15 q 82 0 235 0 q -39 -17 7 0 q -51 143 -51 54 q -45 547 -51 278 q -39 951 -39 817 l -37 951 l -37 953 q 258 978 79 969 q 554 990 525 988 l 564 850 m 544 1142 l 481 1029 q 371 1079 425 1054 q 268 1139 303 1113 q 185 1190 240 1160 q 81 1254 124 1222 l 165 1356 q 349 1240 239 1299 q 544 1142 447 1190 z "},"É":{"ha":574,"x_min":-53,"x_max":614,"o":"m 563 850 q 96 828 392 844 q 93 556 93 693 q 128 556 111 556 q 442 606 281 556 l 482 472 q 93 417 294 413 l 89 138 q 453 183 310 133 l 497 51 q 292 6 394 15 q 81 0 233 0 q -40 -17 6 0 q -53 143 -53 54 q -47 547 -53 278 q -40 951 -40 817 l -39 951 l -39 953 q 257 978 78 969 q 553 990 524 988 l 563 850 m 622 1254 q 519 1190 579 1222 q 338 1083 461 1153 q 222 1029 304 1068 l 160 1142 q 354 1240 257 1190 q 538 1356 465 1299 l 622 1254 z "},"Ê":{"ha":535,"x_min":-51,"x_max":572,"o":"m 564 850 q 97 828 393 844 q 94 556 94 693 q 129 556 113 556 q 443 606 282 556 l 483 472 q 94 417 296 413 l 90 138 q 454 183 311 133 l 499 51 q 293 6 396 15 q 82 0 235 0 q -39 -17 7 0 q -51 143 -51 54 q -45 547 -51 278 q -39 951 -39 817 l -37 951 l -37 953 q 258 978 79 969 q 554 990 525 988 l 564 850 m 579 1039 l 465 968 q 382 1076 439 1008 q 296 1185 321 1150 q 147 996 246 1121 l 39 1076 q 168 1242 147 1214 q 278 1422 235 1333 q 382 1299 322 1378 q 479 1171 451 1201 q 579 1039 544 1094 z "},"Ë":{"ha":542,"x_min":-57,"x_max":567,"o":"m 558 850 q 92 828 388 844 q 89 556 89 693 q 124 556 107 556 q 438 606 276 556 l 478 472 q 89 417 290 413 l 85 138 q 449 183 306 133 l 493 51 q 288 6 390 15 q 76 0 229 0 q -44 -17 1 0 q -57 143 -57 54 q -51 547 -57 278 q -44 951 -44 817 l -43 951 l -43 953 q 253 978 74 969 q 549 990 519 988 l 558 850 m 568 1065 q 343 1038 500 1060 l 325 1188 q 554 1217 407 1199 l 568 1065 m 272 1065 q 47 1038 203 1060 l 29 1188 q 258 1217 110 1199 l 272 1065 z "},"Ì":{"ha":625,"x_min":50,"x_max":610,"o":"m 610 -3 l 181 -8 q 76 22 175 -8 l 111 156 q 254 133 194 133 l 254 189 q 265 514 254 304 q 278 839 276 739 q 115 817 204 832 l 93 954 q 583 990 296 990 l 583 850 q 413 849 469 850 q 400 519 411 746 q 389 190 389 306 l 389 135 l 608 138 l 610 -3 m 506 1142 l 442 1029 q 332 1079 386 1054 q 229 1139 264 1113 q 146 1190 201 1160 q 42 1254 85 1222 l 126 1356 q 310 1240 200 1299 q 506 1142 408 1190 z "},"Í":{"ha":578,"x_min":33,"x_max":563,"o":"m 563 -3 l 133 -8 q 29 22 128 -8 l 64 156 q 207 133 147 133 l 207 189 q 218 514 207 304 q 231 839 229 739 q 68 817 157 832 l 46 954 q 536 990 249 990 l 536 850 q 365 849 422 850 q 353 519 364 746 q 342 190 342 306 l 342 135 l 561 138 l 563 -3 m 538 1254 q 435 1190 494 1222 q 253 1083 376 1153 q 138 1029 219 1068 l 75 1142 q 269 1240 172 1190 q 453 1356 381 1299 l 538 1254 z "},"Î":{"ha":579,"x_min":40,"x_max":590,"o":"m 569 -3 l 140 -8 q 36 22 135 -8 l 71 156 q 214 133 154 133 l 214 189 q 225 514 214 304 q 238 839 236 739 q 75 817 164 832 l 53 954 q 543 990 256 990 l 543 850 q 372 849 429 850 q 360 519 371 746 q 349 190 349 306 l 349 135 l 568 138 l 569 -3 m 597 1067 l 483 996 q 400 1104 457 1036 q 314 1213 339 1178 q 165 1024 264 1149 l 57 1104 q 186 1269 165 1242 q 296 1450 253 1361 q 400 1326 340 1406 q 497 1199 469 1229 q 597 1067 563 1122 z "},"Ï":{"ha":608,"x_min":50,"x_max":593,"o":"m 593 -3 l 164 -8 q 60 22 158 -8 l 94 156 q 238 133 178 133 l 238 189 q 249 514 238 304 q 261 839 260 739 q 99 817 188 832 l 76 954 q 567 990 279 990 l 567 850 q 396 849 453 850 q 383 519 394 746 q 372 190 372 306 l 372 135 l 592 138 l 593 -3 m 588 1065 q 363 1038 519 1060 l 344 1188 q 574 1217 426 1199 l 588 1065 m 292 1065 q 67 1038 222 1060 l 49 1188 q 278 1217 129 1199 l 292 1065 z "},"Ð":{"ha":821,"x_min":24,"x_max":783,"o":"m 783 425 q 586 139 783 264 q 263 -15 515 93 l 208 -14 q 194 285 189 64 l 197 408 q 74 372 147 401 l 24 503 q 196 550 128 543 l 193 964 q 315 957 267 969 q 392 938 340 950 q 707 775 625 886 q 783 425 783 671 m 644 425 q 631 611 644 556 q 519 750 604 710 q 326 810 468 774 q 332 547 328 706 q 485 544 397 543 l 485 404 q 333 407 389 404 q 338 171 336 265 q 525 267 475 233 q 644 425 644 344 z "},"Ñ":{"ha":751,"x_min":56,"x_max":692,"o":"m 692 914 l 689 165 q 663 29 689 111 q 615 -103 639 -36 q 511 99 568 22 l 404 242 q 196 564 369 288 q 193 -18 193 317 l 56 -18 q 60 528 56 164 q 64 1075 64 893 q 303 656 150 889 q 551 282 371 550 q 549 435 549 353 q 551 674 549 514 q 554 914 554 833 l 692 914 m 679 1275 q 636 1136 679 1200 q 517 1065 589 1065 q 386 1110 443 1065 q 300 1185 358 1135 q 226 1221 263 1218 q 196 1071 201 1185 l 58 1079 q 217 1353 75 1353 q 347 1314 286 1353 q 436 1238 371 1299 q 511 1193 482 1196 q 542 1339 543 1215 l 679 1339 l 679 1275 z "},"Ò":{"ha":764,"x_min":47,"x_max":729,"o":"m 729 442 q 657 125 729 243 q 376 -22 567 -22 q 143 90 242 -22 q 47 338 47 199 q 146 674 47 504 q 396 908 250 854 q 504 949 431 918 q 571 908 563 914 q 629 860 614 882 q 665 769 644 839 q 729 442 729 558 m 592 442 q 564 650 592 532 q 489 797 531 788 q 388 746 453 782 q 243 563 301 681 q 185 338 185 446 q 241 188 185 256 q 376 119 297 119 q 592 442 592 119 m 590 1142 l 526 1029 q 417 1079 471 1054 q 314 1139 349 1113 q 231 1190 286 1160 q 126 1254 169 1222 l 211 1356 q 394 1240 285 1299 q 590 1142 493 1190 z "},"Ó":{"ha":764,"x_min":47,"x_max":729,"o":"m 729 442 q 657 125 729 243 q 376 -22 567 -22 q 143 90 242 -22 q 47 338 47 199 q 146 674 47 504 q 396 908 250 854 q 504 949 431 918 q 571 908 563 914 q 629 860 614 882 q 665 769 644 839 q 729 442 729 558 m 592 442 q 564 650 592 532 q 489 797 531 788 q 388 746 453 782 q 243 563 301 681 q 185 338 185 446 q 241 188 185 256 q 376 119 297 119 q 592 442 592 119 m 669 1254 q 567 1190 626 1222 q 385 1083 508 1153 q 269 1029 351 1068 l 207 1142 q 401 1240 304 1190 q 585 1356 513 1299 l 669 1254 z "},"Ô":{"ha":760,"x_min":44,"x_max":726,"o":"m 726 442 q 654 125 726 243 q 374 -22 564 -22 q 140 90 239 -22 q 44 338 44 199 q 143 674 44 504 q 393 908 247 854 q 501 949 428 918 q 568 908 560 914 q 626 860 611 882 q 663 769 642 839 q 726 442 726 558 m 589 442 q 561 650 589 532 q 486 797 528 788 q 385 746 450 782 q 240 563 299 681 q 182 338 182 446 q 238 188 182 256 q 374 119 294 119 q 589 442 589 119 m 678 1039 l 564 968 q 481 1076 538 1008 q 394 1185 419 1150 q 246 996 344 1121 l 138 1076 q 267 1242 246 1214 q 376 1422 333 1333 q 481 1299 421 1378 q 578 1171 550 1201 q 678 1039 643 1094 z "},"Õ":{"ha":765,"x_min":49,"x_max":731,"o":"m 731 442 q 658 125 731 243 q 378 -22 568 -22 q 144 90 243 -22 q 49 338 49 199 q 147 674 49 504 q 397 908 251 854 q 506 949 432 918 q 572 908 564 914 q 631 860 615 882 q 667 769 646 839 q 731 442 731 558 m 593 442 q 565 650 593 532 q 490 797 532 788 q 389 746 454 782 q 244 563 303 681 q 186 338 186 446 q 242 188 186 256 q 378 119 299 119 q 593 442 593 119 m 683 1275 q 640 1136 683 1200 q 521 1065 593 1065 q 390 1110 447 1065 q 304 1185 363 1135 q 231 1221 267 1218 q 200 1071 206 1185 l 63 1079 q 221 1353 79 1353 q 351 1314 290 1353 q 440 1238 375 1299 q 515 1193 486 1196 q 546 1339 547 1215 l 683 1339 l 683 1275 z "},"Ö":{"ha":760,"x_min":43,"x_max":725,"o":"m 725 442 q 653 125 725 243 q 372 -22 563 -22 q 139 90 238 -22 q 43 338 43 199 q 142 674 43 504 q 392 908 246 854 q 500 949 426 918 q 567 908 558 914 q 625 860 610 882 q 661 769 640 839 q 725 442 725 558 m 588 442 q 560 650 588 532 q 485 797 526 788 q 383 746 449 782 q 239 563 297 681 q 181 338 181 446 q 237 188 181 256 q 372 119 293 119 q 588 442 588 119 m 615 1065 q 390 1038 547 1060 l 372 1188 q 601 1217 454 1199 l 615 1065 m 319 1065 q 94 1038 250 1060 l 76 1188 q 306 1217 157 1199 l 319 1065 z "},"×":{"ha":669,"x_min":22,"x_max":656,"o":"m 656 524 q 514 417 586 482 l 406 321 q 629 78 476 238 l 535 -22 q 301 233 503 8 q 133 50 211 154 l 24 135 q 210 335 111 247 q 22 601 111 451 l 140 671 q 315 422 225 526 q 446 539 432 526 q 586 642 521 603 l 656 524 z "},"Ø":{"ha":756,"x_min":31,"x_max":722,"o":"m 722 911 q 653 785 693 844 q 721 440 721 563 q 649 122 721 240 q 368 -24 558 -24 q 222 15 289 -24 q 108 -81 188 -26 l 31 36 q 119 106 93 78 q 42 351 42 207 q 138 682 42 521 q 388 910 238 849 q 493 949 419 917 q 569 907 526 933 q 597 969 578 926 l 722 911 m 494 793 q 481 797 489 796 q 379 747 444 782 q 237 567 297 683 q 176 349 176 451 q 204 229 176 281 q 432 681 260 325 q 494 793 464 744 m 582 414 q 558 625 582 517 q 439 372 499 499 q 303 132 367 222 q 368 118 335 118 q 582 414 582 118 z "},"Ù":{"ha":710,"x_min":61,"x_max":656,"o":"m 656 393 q 572 115 656 233 q 326 -17 479 -17 q 61 392 61 -17 q 65 675 61 486 q 69 958 69 864 l 206 958 q 201 668 206 861 q 197 379 197 475 q 215 207 197 261 q 326 125 243 125 q 471 208 417 125 q 518 378 518 282 l 518 935 l 654 935 l 656 393 m 599 1142 l 535 1029 q 425 1079 479 1054 q 322 1139 357 1113 q 239 1190 294 1160 q 135 1254 178 1222 l 219 1356 q 403 1240 293 1299 q 599 1142 501 1190 z "},"Ú":{"ha":715,"x_min":65,"x_max":674,"o":"m 660 393 q 576 115 660 233 q 331 -17 483 -17 q 65 392 65 -17 q 69 675 65 486 q 74 958 74 864 l 210 958 q 206 668 210 861 q 201 379 201 475 q 219 207 201 261 q 331 125 247 125 q 475 208 421 125 q 522 378 522 282 l 522 935 l 658 935 l 660 393 m 682 1254 q 579 1190 639 1222 q 397 1083 521 1153 q 282 1029 364 1068 l 219 1142 q 414 1240 317 1190 q 597 1356 525 1299 l 682 1254 z "},"Û":{"ha":721,"x_min":64,"x_max":658,"o":"m 658 393 q 575 115 658 233 q 329 -17 482 -17 q 64 392 64 -17 q 68 675 64 486 q 72 958 72 864 l 208 958 q 204 668 208 861 q 200 379 200 475 q 218 207 200 261 q 329 125 246 125 q 474 208 419 125 q 521 378 521 282 l 521 935 l 657 935 l 658 393 m 636 1039 l 522 968 q 439 1076 496 1008 q 353 1185 378 1150 q 204 996 303 1121 l 96 1076 q 225 1242 204 1214 q 335 1422 292 1333 q 439 1299 379 1378 q 536 1171 508 1201 q 636 1039 601 1094 z "},"Ü":{"ha":711,"x_min":61,"x_max":656,"o":"m 656 393 q 572 115 656 233 q 326 -17 479 -17 q 61 392 61 -17 q 65 675 61 486 q 69 958 69 864 l 206 958 q 201 668 206 861 q 197 379 197 475 q 215 207 197 261 q 326 125 243 125 q 471 208 417 125 q 518 378 518 282 l 518 935 l 654 935 l 656 393 m 628 1065 q 403 1038 560 1060 l 385 1188 q 614 1217 467 1199 l 628 1065 m 332 1065 q 107 1038 263 1060 l 89 1188 q 318 1217 169 1199 l 332 1065 z "},"Ý":{"ha":647,"x_min":22,"x_max":643,"o":"m 638 960 q 543 685 614 825 q 421 449 501 607 q 368 346 401 408 l 368 21 l 232 21 l 233 392 q 122 558 197 440 q 38 747 57 663 q 22 956 22 817 l 158 956 q 192 726 158 822 q 306 524 225 629 q 422 747 364 635 q 503 985 485 879 l 638 960 m 651 1254 q 549 1190 608 1222 q 367 1083 490 1153 q 251 1029 333 1068 l 189 1142 q 383 1240 286 1190 q 567 1356 494 1299 l 651 1254 z "},"Þ":{"ha":600,"x_min":17,"x_max":592,"o":"m 592 489 q 486 307 592 374 q 282 233 418 264 q 165 201 182 210 q 167 -8 167 117 l 31 -8 q 18 553 31 33 l 38 533 q 19 753 17 599 q 24 972 24 886 l 160 972 q 156 867 160 938 q 153 761 153 796 q 233 767 190 767 q 474 703 374 767 q 592 489 592 626 m 456 489 q 379 594 456 557 q 229 626 314 626 q 153 618 186 626 q 160 347 154 519 q 333 389 218 360 q 456 489 456 424 z "},"ß":{"ha":575,"x_min":43,"x_max":542,"o":"m 189 493 q 307 565 272 529 q 358 699 358 615 q 329 801 358 753 q 247 857 296 857 q 201 771 213 857 q 189 493 196 678 m 182 144 q 407 300 407 194 q 326 393 407 344 q 188 460 301 408 q 182 144 183 326 m 542 300 q 431 97 542 178 q 204 7 349 36 l 182 128 q 181 -136 181 7 l 46 -136 l 44 174 q 60 640 43 418 q 71 793 65 717 q 115 935 82 888 q 247 997 160 997 q 425 907 357 997 q 489 707 489 824 q 417 496 489 582 q 542 300 542 426 z "},"à":{"ha":624,"x_min":35,"x_max":624,"o":"m 568 18 l 432 4 l 425 67 q 244 -14 350 -14 q 93 51 151 -14 q 35 213 35 117 q 101 380 35 317 q 269 443 167 443 q 406 419 347 443 q 349 533 400 479 q 240 588 299 588 q 192 581 197 588 q 178 507 188 575 l 43 533 q 97 679 61 640 q 240 725 139 725 q 519 504 428 725 q 542 440 542 450 q 540 356 542 411 q 539 271 539 300 q 549 156 539 228 q 568 18 556 103 m 385 276 q 269 306 340 306 q 192 282 213 306 q 172 199 172 258 q 235 125 172 125 q 335 172 290 125 q 385 276 379 218 m 631 914 l 567 801 q 457 851 511 826 q 354 911 389 885 q 271 963 326 932 q 167 1026 210 994 l 251 1128 q 435 1013 325 1071 q 631 914 533 963 z "},"á":{"ha":603,"x_min":35,"x_max":646,"o":"m 568 18 l 432 4 l 425 67 q 244 -14 350 -14 q 93 51 151 -14 q 35 213 35 117 q 101 380 35 317 q 269 443 167 443 q 406 419 347 443 q 349 533 400 479 q 240 588 299 588 q 192 581 197 588 q 178 507 188 575 l 43 533 q 97 679 61 640 q 240 725 139 725 q 519 504 428 725 q 542 440 542 450 q 540 356 542 411 q 539 271 539 300 q 549 156 539 228 q 568 18 556 103 m 385 276 q 269 306 340 306 q 192 282 213 306 q 172 199 172 258 q 235 125 172 125 q 335 172 290 125 q 385 276 379 218 m 654 1026 q 551 963 611 994 q 369 856 493 925 q 254 801 336 840 l 192 914 q 386 1013 289 963 q 569 1128 497 1071 l 654 1026 z "},"â":{"ha":632,"x_min":31,"x_max":613,"o":"m 564 18 l 428 4 l 421 67 q 240 -14 346 -14 q 89 51 147 -14 q 31 213 31 117 q 97 380 31 317 q 265 443 163 443 q 401 419 343 443 q 345 533 396 479 q 236 588 294 588 q 188 581 193 588 q 174 507 183 575 l 39 533 q 93 679 57 640 q 236 725 135 725 q 515 504 424 725 q 538 440 538 450 q 536 356 538 411 q 535 271 535 300 q 544 156 535 228 q 564 18 551 103 m 381 276 q 265 306 336 306 q 188 282 208 306 q 168 199 168 258 q 231 125 168 125 q 331 172 286 125 q 381 276 375 218 m 619 811 l 506 740 q 422 849 479 781 q 336 957 361 922 q 188 768 286 893 l 79 849 q 208 1014 188 986 q 318 1194 275 1106 q 422 1071 363 1150 q 519 943 492 974 q 619 811 585 867 z "},"ã":{"ha":599,"x_min":-4,"x_max":642,"o":"m 529 18 l 393 4 l 386 67 q 206 -14 311 -14 q 54 51 113 -14 q -4 213 -4 117 q 62 380 -4 317 q 231 443 128 443 q 367 419 308 443 q 310 533 361 479 q 201 588 260 588 q 153 581 158 588 q 139 507 149 575 l 4 533 q 58 679 22 640 q 201 725 100 725 q 481 504 389 725 q 503 440 503 450 q 501 356 503 411 q 500 271 500 300 q 510 156 500 228 q 529 18 517 103 m 346 276 q 231 306 301 306 q 153 282 174 306 q 133 199 133 258 q 196 125 133 125 q 296 172 251 125 q 346 276 340 218 m 642 1047 q 599 908 642 972 q 479 838 551 838 q 349 882 406 838 q 263 957 321 907 q 189 993 225 990 q 158 843 164 957 l 21 851 q 179 1125 38 1125 q 310 1086 249 1125 q 399 1010 333 1071 q 474 965 444 968 q 504 1111 506 988 l 642 1111 l 642 1047 z "},"ä":{"ha":618,"x_min":26,"x_max":608,"o":"m 560 18 l 424 4 l 417 67 q 236 -14 342 -14 q 85 51 143 -14 q 26 213 26 117 q 92 380 26 317 q 261 443 158 443 q 397 419 339 443 q 341 533 392 479 q 232 588 290 588 q 184 581 189 588 q 169 507 179 575 l 35 533 q 89 679 53 640 q 232 725 131 725 q 511 504 419 725 q 533 440 533 450 q 532 356 533 411 q 531 271 531 300 q 540 156 531 228 q 560 18 547 103 m 376 276 q 261 306 332 306 q 184 282 204 306 q 164 199 164 258 q 226 125 164 125 q 326 172 282 125 q 376 276 371 218 m 610 838 q 385 810 542 832 l 367 960 q 596 989 449 971 l 610 838 m 314 838 q 89 810 244 832 l 71 960 q 300 989 151 971 l 314 838 z "},"å":{"ha":700,"x_min":47,"x_max":671,"o":"m 581 18 l 444 4 l 438 67 q 257 -14 363 -14 q 106 51 164 -14 q 47 213 47 117 q 113 380 47 317 q 282 443 179 443 q 418 419 360 443 q 362 533 413 479 q 253 588 311 588 q 205 581 210 588 q 190 507 200 575 l 56 533 q 110 679 74 640 q 253 725 151 725 q 532 504 440 725 q 554 440 554 450 q 553 356 554 411 q 551 271 551 300 q 561 156 551 228 q 581 18 568 103 m 397 276 q 282 306 353 306 q 205 282 225 306 q 185 199 185 258 q 247 125 185 125 q 347 172 303 125 q 397 276 392 218 m 671 924 q 609 742 671 813 q 436 672 547 672 q 263 726 339 672 q 178 881 178 788 q 232 1044 178 974 q 383 1124 293 1124 l 396 1124 q 422 1128 404 1124 q 449 1133 440 1133 q 608 1075 544 1133 q 671 924 671 1017 m 536 924 q 461 996 536 996 q 422 992 447 996 q 383 988 396 988 q 329 949 351 988 q 313 881 313 915 q 363 824 313 842 q 446 810 397 810 q 536 924 536 810 z "},"æ":{"ha":1038,"x_min":31,"x_max":1001,"o":"m 1001 389 q 882 274 1001 274 q 720 277 828 274 q 558 281 613 281 l 553 281 q 633 158 556 199 q 785 125 694 125 q 933 179 818 125 l 988 53 q 889 8 938 31 q 785 -14 831 -14 q 579 33 669 -14 l 581 18 l 443 4 l 436 67 q 249 -14 358 -14 q 92 51 153 -14 q 31 213 31 117 q 99 380 31 317 q 274 443 168 443 q 415 419 356 443 q 358 532 408 479 q 244 588 304 588 q 194 581 200 588 q 178 507 189 575 l 42 533 q 96 681 58 643 q 244 725 139 725 q 499 571 404 725 q 779 719 603 719 q 958 607 901 719 q 1001 389 1001 521 m 860 411 l 846 519 q 779 582 831 582 q 647 534 708 582 q 565 418 586 486 q 694 414 606 418 q 824 411 779 411 q 860 411 843 411 m 393 276 q 274 306 347 306 q 195 282 215 306 q 175 199 175 258 q 239 125 175 125 q 343 172 297 125 q 393 276 389 218 z "},"ç":{"ha":581,"x_min":21,"x_max":597,"o":"m 597 632 l 528 511 q 414 566 461 553 q 288 579 367 579 q 192 475 235 579 q 154 306 154 383 q 203 172 154 231 q 324 114 251 114 q 415 136 382 114 q 486 206 435 149 l 583 110 q 375 -24 476 -10 q 354 -87 371 -47 q 446 -237 446 -124 q 396 -376 446 -319 q 268 -433 346 -433 q 194 -401 235 -433 l 122 -344 l 199 -229 q 279 -290 254 -267 q 310 -243 310 -283 q 272 -207 310 -219 q 165 -176 244 -199 q 210 -99 188 -137 q 240 -15 236 -47 q 74 110 132 17 q 21 318 21 197 q 86 576 21 456 q 288 719 164 719 q 597 632 454 719 z "},"è":{"ha":628,"x_min":25,"x_max":608,"o":"m 597 390 q 569 301 597 328 q 481 274 542 274 q 321 276 424 274 q 161 281 210 281 q 240 160 168 200 q 386 125 300 125 q 531 179 419 125 l 583 51 q 488 10 536 31 q 386 -14 429 -14 q 131 68 228 -14 q 25 314 25 156 q 124 590 25 468 q 381 719 229 719 q 556 608 500 719 q 597 390 597 524 m 458 411 l 446 519 q 381 582 432 582 q 252 535 311 582 q 174 418 193 488 q 299 414 213 418 q 424 411 379 411 q 458 411 442 411 m 615 914 l 551 801 q 442 851 496 826 q 339 911 374 885 q 256 963 311 932 q 151 1026 194 994 l 236 1128 q 419 1013 310 1071 q 615 914 518 963 z "},"é":{"ha":626,"x_min":25,"x_max":644,"o":"m 597 390 q 569 301 597 328 q 481 274 542 274 q 321 276 424 274 q 161 281 210 281 q 240 160 168 200 q 386 125 300 125 q 531 179 419 125 l 583 51 q 488 10 536 31 q 386 -14 429 -14 q 131 68 228 -14 q 25 314 25 156 q 124 590 25 468 q 381 719 229 719 q 556 608 500 719 q 597 390 597 524 m 458 411 l 446 519 q 381 582 432 582 q 252 535 311 582 q 174 418 193 488 q 299 414 213 418 q 424 411 379 411 q 458 411 442 411 m 653 1026 q 550 963 610 994 q 368 856 492 925 q 253 801 335 840 l 190 914 q 385 1013 288 963 q 568 1128 496 1071 l 653 1026 z "},"ê":{"ha":643,"x_min":29,"x_max":619,"o":"m 601 390 q 574 301 601 328 q 485 274 546 274 q 325 276 428 274 q 165 281 214 281 q 244 160 172 200 q 390 125 304 125 q 535 179 424 125 l 588 51 q 492 10 540 31 q 390 -14 433 -14 q 135 68 232 -14 q 29 314 29 156 q 128 590 29 468 q 385 719 233 719 q 560 608 504 719 q 601 390 601 524 m 463 411 l 450 519 q 385 582 436 582 q 256 535 315 582 q 178 418 197 488 q 303 414 217 418 q 428 411 383 411 q 463 411 446 411 m 626 811 l 513 740 q 429 849 486 781 q 343 957 368 922 q 194 768 293 893 l 86 849 q 215 1014 194 986 q 325 1194 282 1106 q 429 1071 369 1150 q 526 943 499 974 q 626 811 592 867 z "},"ë":{"ha":619,"x_min":17,"x_max":607,"o":"m 589 390 q 561 301 589 328 q 472 274 533 274 q 313 276 415 274 q 153 281 201 281 q 232 160 160 200 q 378 125 292 125 q 522 179 411 125 l 575 51 q 479 10 528 31 q 378 -14 421 -14 q 122 68 219 -14 q 17 314 17 156 q 115 590 17 468 q 372 719 221 719 q 547 608 492 719 q 589 390 589 524 m 450 411 l 438 519 q 372 582 424 582 q 244 535 303 582 q 165 418 185 488 q 290 414 204 418 q 415 411 371 411 q 450 411 433 411 m 608 838 q 383 810 540 832 l 365 960 q 594 989 447 971 l 608 838 m 313 838 q 88 810 243 832 l 69 960 q 299 989 150 971 l 313 838 z "},"ì":{"ha":524,"x_min":56,"x_max":504,"o":"m 299 8 l 188 8 q 188 110 188 42 q 189 211 189 176 q 178 436 189 344 q 169 574 171 485 q 164 711 168 669 l 274 733 q 280 597 279 688 q 286 460 281 506 q 299 8 301 338 m 511 914 l 447 801 q 338 851 392 826 q 235 911 269 885 q 151 963 207 932 q 47 1026 90 994 l 132 1128 q 315 1013 206 1071 q 511 914 414 963 z "},"í":{"ha":458,"x_min":43,"x_max":490,"o":"m 207 8 l 96 8 q 96 110 96 42 q 97 211 97 176 q 86 436 97 344 q 78 574 79 485 q 72 711 76 669 l 182 733 q 188 597 188 688 q 194 460 189 506 q 207 8 210 338 m 499 1026 q 396 963 456 994 q 214 856 338 925 q 99 801 181 840 l 36 914 q 231 1013 133 963 q 414 1128 342 1071 l 499 1026 z "},"î":{"ha":556,"x_min":25,"x_max":550,"o":"m 296 8 l 185 8 q 185 110 185 42 q 186 211 186 176 q 175 436 186 344 q 167 574 168 485 q 161 711 165 669 l 271 733 q 277 597 276 688 q 283 460 278 506 q 296 8 299 338 m 557 811 l 443 740 q 360 849 417 781 q 274 957 299 922 q 125 768 224 893 l 17 849 q 146 1014 125 986 q 256 1194 213 1106 q 360 1071 300 1150 q 457 943 429 974 q 557 811 522 867 z "},"ï":{"ha":504,"x_min":4,"x_max":540,"o":"m 369 8 l 258 8 q 258 110 258 42 q 260 211 260 176 q 249 436 260 344 q 240 574 242 485 q 235 711 239 669 l 344 733 q 351 597 350 688 q 357 460 351 506 q 369 8 372 338 m 542 838 q 317 810 474 832 l 299 960 q 528 989 381 971 l 542 838 m 246 838 q 21 810 176 832 l 3 960 q 232 989 83 971 l 246 838 z "},"ð":{"ha":692,"x_min":43,"x_max":667,"o":"m 308 568 q 489 506 414 563 q 461 589 478 549 q 308 568 381 592 m 667 582 l 600 582 q 633 310 633 465 q 592 129 633 218 q 465 11 543 25 q 332 -6 379 -6 q 124 83 206 -6 q 43 303 43 172 q 100 481 43 408 q 254 565 157 553 l 211 681 q 360 725 299 715 q 238 758 313 757 l 238 897 q 538 724 433 897 q 667 722 579 722 l 667 582 m 475 243 q 425 378 475 328 q 290 429 375 429 q 208 393 238 429 q 178 301 178 357 q 221 183 178 232 q 332 135 264 135 q 393 142 350 135 l 376 122 q 446 149 408 142 q 475 243 475 169 z "},"ñ":{"ha":694,"x_min":35,"x_max":663,"o":"m 632 157 q 632 72 632 129 q 631 -14 631 15 l 494 -14 q 496 69 494 14 q 497 150 497 124 q 363 590 497 590 q 171 461 278 590 q 169 360 171 436 q 168 258 168 294 q 193 15 168 122 l 61 -17 q 35 243 35 92 l 35 711 l 171 711 l 171 657 q 363 728 261 728 q 632 157 632 728 m 663 1047 q 619 908 663 972 q 500 838 572 838 q 369 882 426 838 q 283 957 342 907 q 210 993 246 990 q 179 843 185 957 l 42 851 q 200 1125 58 1125 q 331 1086 269 1125 q 419 1010 354 1071 q 494 965 465 968 q 525 1111 526 988 l 663 1111 l 663 1047 z "},"ò":{"ha":647,"x_min":40,"x_max":614,"o":"m 614 324 q 564 94 614 183 q 371 -18 500 -18 q 336 -18 360 -18 q 301 -17 314 -17 q 108 117 186 -17 q 40 357 40 232 q 90 571 40 496 q 275 688 146 653 q 401 711 367 711 q 481 669 454 711 q 614 324 614 575 m 479 311 q 461 449 479 375 q 408 557 440 539 l 381 572 q 308 553 378 572 q 196 483 222 529 q 176 357 176 447 q 214 210 176 289 q 301 122 254 122 q 336 121 314 122 q 371 119 358 119 q 479 311 479 119 m 604 914 l 540 801 q 431 851 485 826 q 328 911 363 885 q 244 963 300 932 q 140 1026 183 994 l 225 1128 q 408 1013 299 1071 q 604 914 507 963 z "},"ó":{"ha":642,"x_min":38,"x_max":644,"o":"m 611 324 q 561 94 611 183 q 368 -18 497 -18 q 333 -18 357 -18 q 299 -17 311 -17 q 106 117 183 -17 q 38 357 38 232 q 88 571 38 496 q 272 688 143 653 q 399 711 364 711 q 478 669 451 711 q 611 324 611 575 m 476 311 q 458 449 476 375 q 406 557 438 539 l 378 572 q 306 553 375 572 q 193 483 219 529 q 174 357 174 447 q 211 210 174 289 q 299 122 251 122 q 333 121 311 122 q 368 119 356 119 q 476 311 476 119 m 653 1026 q 550 963 610 994 q 368 856 492 925 q 253 801 335 840 l 190 914 q 385 1013 288 963 q 568 1128 496 1071 l 653 1026 z "},"ô":{"ha":657,"x_min":44,"x_max":618,"o":"m 618 324 q 568 94 618 183 q 375 -18 504 -18 q 340 -18 364 -18 q 306 -17 318 -17 q 113 117 190 -17 q 44 357 44 232 q 94 571 44 496 q 279 688 150 653 q 406 711 371 711 q 485 669 458 711 q 618 324 618 575 m 483 311 q 465 449 483 375 q 413 557 444 539 l 385 572 q 313 553 382 572 q 200 483 226 529 q 181 357 181 447 q 218 210 181 289 q 306 122 258 122 q 340 121 318 122 q 375 119 363 119 q 483 311 483 119 m 615 811 l 501 740 q 418 849 475 781 q 332 957 357 922 q 183 768 282 893 l 75 849 q 204 1014 183 986 q 314 1194 271 1106 q 418 1071 358 1150 q 515 943 488 974 q 615 811 581 867 z "},"õ":{"ha":656,"x_min":31,"x_max":658,"o":"m 604 324 q 554 94 604 183 q 361 -18 490 -18 q 326 -18 350 -18 q 292 -17 304 -17 q 99 117 176 -17 q 31 357 31 232 q 81 571 31 496 q 265 688 136 653 q 392 711 357 711 q 471 669 444 711 q 604 324 604 575 m 469 311 q 451 449 469 375 q 399 557 431 539 l 371 572 q 299 553 368 572 q 186 483 213 529 q 167 357 167 447 q 204 210 167 289 q 292 122 244 122 q 326 121 304 122 q 361 119 349 119 q 469 311 469 119 m 658 1047 q 615 908 658 972 q 496 838 568 838 q 365 882 422 838 q 279 957 338 907 q 206 993 242 990 q 175 843 181 957 l 38 851 q 196 1125 54 1125 q 326 1086 265 1125 q 415 1010 350 1071 q 490 965 461 968 q 521 1111 522 988 l 658 1111 l 658 1047 z "},"ö":{"ha":650,"x_min":40,"x_max":614,"o":"m 614 324 q 564 94 614 183 q 371 -18 500 -18 q 336 -18 360 -18 q 301 -17 314 -17 q 108 117 186 -17 q 40 357 40 232 q 90 571 40 496 q 275 688 146 653 q 401 711 367 711 q 481 669 454 711 q 614 324 614 575 m 479 311 q 461 449 479 375 q 408 557 440 539 l 381 572 q 308 553 378 572 q 196 483 222 529 q 176 357 176 447 q 214 210 176 289 q 301 122 254 122 q 336 121 314 122 q 371 119 358 119 q 479 311 479 119 m 606 838 q 381 810 538 832 l 363 960 q 592 989 444 971 l 606 838 m 310 838 q 85 810 240 832 l 67 960 q 296 989 147 971 l 310 838 z "},"÷":{"ha":635,"x_min":7,"x_max":640,"o":"m 418 564 q 239 539 365 560 l 215 672 q 410 703 285 686 l 418 564 m 640 333 q 322 335 522 333 l 7 336 l 7 474 q 324 472 113 474 q 640 469 535 469 l 640 333 m 358 33 l 196 33 l 196 171 l 358 171 l 358 33 z "},"ø":{"ha":703,"x_min":24,"x_max":674,"o":"m 674 760 q 617 657 647 701 q 571 593 593 624 q 632 333 632 494 q 575 92 632 186 q 368 -22 506 -22 q 231 0 281 -22 q 100 -121 188 -60 l 24 -4 q 133 92 97 46 q 50 357 50 213 q 100 575 50 500 q 286 690 154 656 q 406 715 379 715 q 479 689 451 715 q 547 818 507 724 l 674 760 m 394 574 l 393 575 q 321 557 389 575 q 207 486 233 533 q 188 357 188 450 q 217 224 188 290 q 394 574 272 343 m 489 297 q 478 418 489 360 q 401 267 417 294 q 315 119 357 181 q 364 118 335 118 q 489 297 489 118 z "},"ù":{"ha":708,"x_min":49,"x_max":663,"o":"m 663 463 q 628 208 663 306 q 472 10 583 85 q 392 -22 424 -22 q 92 261 169 -22 q 49 718 49 418 l 185 718 q 207 371 185 490 q 386 117 251 122 q 496 242 464 164 q 521 408 521 304 l 521 718 l 657 718 q 660 590 657 675 q 663 463 663 506 m 610 914 l 546 801 q 436 851 490 826 q 333 911 368 885 q 250 963 306 932 q 146 1026 189 994 l 231 1128 q 414 1013 304 1071 q 610 914 513 963 z "},"ú":{"ha":701,"x_min":43,"x_max":657,"o":"m 657 463 q 622 208 657 306 q 467 10 578 85 q 386 -22 418 -22 q 86 261 164 -22 q 43 718 43 418 l 179 718 q 201 371 179 490 q 381 117 246 122 q 490 242 458 164 q 515 408 515 304 l 515 718 l 651 718 q 654 590 651 675 q 657 463 657 506 m 642 1026 q 539 963 599 994 q 357 856 481 925 q 242 801 324 840 l 179 914 q 374 1013 276 963 q 557 1128 485 1071 l 642 1026 z "},"û":{"ha":731,"x_min":56,"x_max":669,"o":"m 669 463 q 635 208 669 306 q 479 10 590 85 q 399 -22 431 -22 q 99 261 176 -22 q 56 718 56 418 l 192 718 q 214 371 192 490 q 393 117 258 122 q 503 242 471 164 q 528 408 528 304 l 528 718 l 664 718 q 667 590 664 675 q 669 463 669 506 m 624 811 l 510 740 q 426 849 483 781 q 340 957 365 922 q 192 768 290 893 l 83 849 q 213 1014 192 986 q 322 1194 279 1106 q 426 1071 367 1150 q 524 943 496 974 q 624 811 589 867 z "},"ü":{"ha":717,"x_min":54,"x_max":668,"o":"m 668 463 q 633 208 668 306 q 478 10 589 85 q 397 -22 429 -22 q 97 261 175 -22 q 54 718 54 418 l 190 718 q 213 371 190 490 q 392 117 257 122 q 501 242 469 164 q 526 408 526 304 l 526 718 l 663 718 q 665 590 663 675 q 668 463 668 506 m 603 838 q 378 810 535 832 l 360 960 q 589 989 442 971 l 603 838 m 307 838 q 82 810 238 832 l 64 960 q 293 989 144 971 l 307 838 z "},"ý":{"ha":697,"x_min":32,"x_max":688,"o":"m 672 707 q 619 521 661 636 q 442 39 544 314 l 454 24 l 431 10 q 350 -197 371 -146 q 260 -400 303 -312 l 138 -337 q 286 31 206 -196 q 144 379 217 153 q 90 519 131 424 q 26 683 49 614 l 157 726 q 215 574 174 672 q 276 421 260 471 q 349 208 297 349 l 446 446 q 538 729 524 640 l 672 707 m 696 1026 q 593 963 653 994 q 411 856 535 925 q 296 801 378 840 l 233 914 q 428 1013 331 963 q 611 1128 539 1071 l 696 1026 z "},"þ":{"ha":699,"x_min":35,"x_max":678,"o":"m 678 288 q 551 54 678 136 q 283 -17 443 -17 q 193 6 239 -17 l 190 -401 l 53 -401 q 56 28 53 -258 q 58 458 58 315 q 35 1028 58 917 l 172 1063 q 178 819 174 978 q 185 653 179 704 q 314 690 258 690 q 474 642 375 690 q 678 288 678 543 m 540 288 q 499 447 540 389 q 415 515 471 485 q 315 546 360 546 q 199 496 260 546 l 199 481 q 197 326 199 426 q 194 171 194 219 q 283 126 247 126 q 449 158 379 126 q 540 288 540 200 z "},"ÿ":{"ha":694,"x_min":32,"x_max":669,"o":"m 672 707 q 619 521 661 636 q 442 39 544 314 l 454 24 l 431 10 q 350 -197 371 -146 q 260 -400 303 -312 l 138 -337 q 286 31 206 -196 q 144 379 217 153 q 90 519 131 424 q 26 683 49 614 l 157 726 q 215 574 174 672 q 276 421 260 471 q 349 208 297 349 l 446 446 q 538 729 524 640 l 672 707 m 618 838 q 393 810 550 832 l 375 960 q 604 989 457 971 l 618 838 m 322 838 q 97 810 253 832 l 79 960 q 308 989 160 971 l 322 838 z "},"ı":{"ha":251,"x_min":56,"x_max":193,"o":"m 190 8 l 79 8 q 79 110 79 42 q 81 211 81 176 q 69 436 81 344 q 61 574 63 485 q 56 711 60 669 l 165 733 q 172 597 171 688 q 178 460 172 506 q 190 8 193 338 z "},"Ł":{"ha":724,"x_min":-11,"x_max":753,"o":"m 753 1 q 636 -10 735 0 q 536 -15 579 -15 q 490 -12 511 -15 q 323 -10 436 -12 q 153 -8 210 -8 q 153 142 153 42 q 154 292 154 242 q 153 371 154 333 q 53 324 121 356 l -11 446 q 146 528 71 490 q 132 729 132 701 q 134 844 132 768 q 136 958 136 919 l 275 958 q 274 854 275 924 q 272 750 272 785 q 278 600 272 667 q 381 679 315 625 l 467 569 q 364 501 425 535 q 290 456 315 475 q 290 131 293 375 q 411 129 350 129 q 743 140 561 129 l 753 1 z "},"ł":{"ha":564,"x_min":8,"x_max":542,"o":"m 542 -3 q 300 -11 408 -4 q 189 -18 200 -18 q 8 22 140 -18 l 44 156 q 188 133 126 133 q 193 369 185 239 q 100 324 163 354 l 35 446 q 204 535 113 489 q 211 839 211 660 q 47 817 138 832 l 25 954 q 515 990 229 990 l 515 850 q 346 849 403 850 q 343 617 346 718 q 419 681 368 638 l 504 571 q 419 513 472 543 q 335 460 358 476 q 322 135 319 207 l 540 138 l 542 -3 z "},"Œ":{"ha":1143,"x_min":-21,"x_max":1158,"o":"m 1158 850 q 678 828 983 844 l 674 556 q 711 556 693 556 q 1033 606 868 556 l 1075 471 q 678 417 890 415 q 674 369 676 407 q 669 322 669 340 l 669 138 q 1046 183 899 133 l 1092 51 q 874 4 988 14 q 651 -1 811 -1 q 536 -17 583 -1 q 529 42 531 17 q 315 -22 444 -22 q 76 90 176 -22 q -21 338 -21 197 q 79 675 -21 508 q 336 911 183 851 q 446 950 371 918 q 538 901 478 935 l 538 951 l 539 951 l 539 953 q 843 978 658 969 q 1149 990 1119 988 l 1158 850 m 536 432 q 508 649 536 531 q 432 799 475 790 q 328 747 394 783 q 179 565 239 682 q 119 338 119 447 q 177 188 119 256 q 315 119 235 119 q 536 432 536 119 z "},"œ":{"ha":1124,"x_min":43,"x_max":1088,"o":"m 1088 388 q 1058 299 1088 325 q 967 274 1028 274 q 803 276 908 274 q 638 281 688 281 q 721 160 644 201 q 869 125 782 125 q 1019 179 904 125 l 1074 51 q 975 8 1024 31 q 869 -14 915 -14 q 581 93 686 -14 q 382 -18 513 -18 q 347 -18 371 -18 q 313 -17 325 -17 q 113 117 193 -17 q 43 357 43 232 q 94 572 43 499 q 285 688 150 653 q 417 710 375 710 l 432 710 q 518 657 465 710 q 585 571 560 614 q 864 719 689 719 q 1044 607 988 719 q 1088 388 1088 521 m 944 411 l 932 519 q 864 582 917 582 q 732 535 793 582 q 650 418 671 488 q 781 414 690 418 q 910 411 864 411 q 944 411 928 411 m 494 313 q 478 450 494 379 q 422 557 456 539 l 394 572 q 318 553 390 572 q 206 486 233 531 q 183 357 183 450 q 221 210 183 289 q 313 122 264 122 q 349 121 325 122 q 383 119 372 119 q 494 313 494 119 z "},"Š":{"ha":557,"x_min":-42,"x_max":597,"o":"m 596 914 l 538 786 q 421 829 472 819 q 300 838 381 838 q 171 800 242 838 q 94 714 94 760 q 183 610 94 671 q 325 514 229 578 q 513 179 513 339 q 408 31 513 88 q 225 -17 324 -17 q -29 101 101 -17 l 63 207 q 225 125 153 125 q 317 142 264 125 q 375 179 375 161 q 303 329 375 238 q 178 446 236 413 q 28 549 68 508 q -42 714 -42 618 q 78 908 -42 829 q 300 978 182 978 q 451 967 400 978 q 596 914 511 956 m 604 1358 q 268 983 453 1133 q 125 1186 197 1085 q 11 1406 49 1303 l 140 1450 q 289 1193 171 1361 q 394 1308 342 1250 q 490 1432 454 1378 l 604 1358 z "},"š":{"ha":610,"x_min":4,"x_max":597,"o":"m 581 594 l 481 501 q 386 575 429 560 q 268 588 353 588 q 204 579 224 588 q 174 526 174 565 q 263 465 174 482 q 463 418 424 438 q 578 206 578 360 q 509 52 578 118 q 353 -14 440 -14 q -4 163 181 -14 l 89 264 q 353 125 235 125 q 412 150 382 125 q 442 206 442 175 q 419 289 442 264 q 340 319 396 314 q 232 331 304 322 q 38 526 38 365 q 268 725 38 725 q 440 701 381 725 q 581 594 508 675 m 604 1131 q 268 756 453 906 q 125 958 197 857 q 11 1178 49 1075 l 140 1222 q 289 965 171 1133 q 394 1081 342 1022 q 490 1204 454 1150 l 604 1131 z "},"Ÿ":{"ha":632,"x_min":7,"x_max":619,"o":"m 622 960 q 528 685 599 825 q 406 449 486 607 q 353 346 386 408 l 353 21 l 217 21 l 218 392 q 107 558 182 440 q 22 747 42 663 q 7 956 7 817 l 143 956 q 176 726 143 822 q 290 524 210 629 q 407 747 349 635 q 488 985 469 879 l 622 960 m 586 1065 q 361 1038 518 1060 l 343 1188 q 572 1217 425 1199 l 586 1065 m 290 1065 q 65 1038 221 1060 l 47 1188 q 276 1217 128 1199 l 290 1065 z "},"Ž":{"ha":629,"x_min":-4,"x_max":626,"o":"m 628 938 q 558 751 594 810 q 461 618 549 736 q 372 490 454 608 q 276 369 319 414 q 190 265 217 306 q 143 140 157 211 q 258 138 196 138 q 439 141 319 138 q 618 144 558 144 l 618 6 q 447 3 561 6 q 276 1 333 1 q -4 14 125 1 q 38 263 1 171 q 179 468 76 360 q 269 582 221 513 l 353 704 q 418 789 383 743 q 265 781 350 781 q 131 784 221 781 q -3 788 42 788 l -3 926 q 132 924 42 926 q 267 922 222 922 q 386 930 307 922 q 506 938 465 938 l 628 938 m 633 1358 q 297 983 482 1133 q 154 1186 226 1085 q 40 1406 78 1303 l 169 1450 q 318 1193 200 1361 q 424 1308 371 1250 q 519 1432 483 1378 l 633 1358 z "},"ž":{"ha":672,"x_min":18,"x_max":669,"o":"m 669 28 q 317 17 400 28 q 294 14 311 15 l 231 4 q 140 -4 176 -4 l -1 -4 q 144 199 88 114 q 297 390 190 267 q 447 581 403 514 q 406 579 426 579 q 358 584 390 579 q 311 589 326 589 l 54 589 l 54 726 q 222 724 110 726 q 389 722 333 722 q 657 738 517 722 q 554 503 621 606 q 397 303 508 432 q 278 151 324 217 q 575 165 394 165 l 669 165 l 669 28 m 640 1131 q 304 756 489 906 q 161 958 233 857 q 47 1178 85 1075 l 176 1222 q 325 965 207 1133 q 431 1081 378 1022 q 526 1204 490 1150 l 640 1131 z "},"ƒ":{"ha":738,"x_min":-18,"x_max":790,"o":"m 790 876 l 601 876 q 438 622 468 872 l 583 624 l 583 482 q 425 481 472 482 q 392 178 410 265 q 285 -60 361 31 q 26 -224 197 -165 l -18 -90 q 192 43 126 -40 q 261 231 246 113 q 276 478 264 244 q 99 493 193 478 l 119 633 q 279 619 200 619 l 292 619 q 392 899 319 803 q 651 1018 482 1018 l 790 1018 l 790 876 z "},"ˆ":{"ha":468,"x_min":-57,"x_max":483,"o":"m 483 1039 l 369 968 q 286 1076 343 1008 q 200 1185 225 1150 q 51 996 150 1121 l -57 1076 q 72 1242 51 1214 q 182 1422 139 1333 q 286 1299 226 1378 q 383 1171 356 1201 q 483 1039 449 1094 z "},"ˇ":{"ha":533,"x_min":-15,"x_max":578,"o":"m 578 1358 q 242 983 426 1133 q 99 1186 171 1085 q -15 1406 22 1303 l 114 1450 q 263 1193 144 1361 q 368 1308 315 1250 q 464 1432 428 1378 l 578 1358 z "},"¯":{"ha":431,"x_min":-4,"x_max":461,"o":"m 461 1040 q 356 1040 424 1040 q 229 1039 267 1039 l -4 1039 l -4 1144 l 229 1144 q 356 1144 265 1144 q 461 1146 424 1146 l 461 1040 z "},"˘":{"ha":503,"x_min":-3,"x_max":544,"o":"m 544 1240 q 485 1093 524 1188 q 385 1011 457 1029 q 250 1001 347 1001 q 43 1071 97 1001 q -3 1278 -3 1129 l 132 1278 q 146 1151 132 1169 q 250 1128 164 1128 q 357 1140 339 1128 q 378 1169 371 1149 q 417 1288 390 1210 l 544 1240 z "},"˙":{"ha":185,"x_min":18,"x_max":201,"o":"m 201 1051 q 18 1032 107 1031 l 18 1143 q 19 1196 18 1203 l 189 1204 q 201 1051 189 1121 z "},"˚":{"ha":339,"x_min":-131,"x_max":363,"o":"m 363 1204 q 301 1023 363 1093 q 128 953 239 953 q -46 1007 31 953 q -131 1161 -131 1068 q -76 1325 -131 1254 q 75 1404 -15 1404 l 88 1404 q 114 1409 96 1404 q 140 1414 132 1414 q 299 1356 236 1414 q 363 1204 363 1297 m 228 1204 q 153 1276 228 1276 q 113 1272 139 1276 q 75 1268 88 1268 q 21 1229 43 1268 q 4 1161 4 1196 q 54 1104 4 1122 q 138 1090 89 1090 q 228 1204 228 1090 z "},"˛":{"ha":392,"x_min":43,"x_max":354,"o":"m 354 0 q 215 -112 229 -97 q 169 -210 169 -158 q 183 -236 169 -232 q 254 -239 190 -239 l 254 -369 q 107 -342 156 -369 q 43 -210 43 -304 q 81 -81 43 -124 q 182 0 93 -64 l 354 0 z "},"˜":{"ha":532,"x_min":-51,"x_max":569,"o":"m 569 1275 q 526 1136 569 1200 q 407 1065 479 1065 q 276 1110 333 1065 q 190 1185 249 1135 q 117 1221 153 1218 q 86 1071 92 1185 l -51 1079 q 107 1353 -35 1353 q 238 1314 176 1353 q 326 1238 261 1299 q 401 1193 372 1196 q 432 1339 433 1215 l 569 1339 l 569 1275 z "},"˝":{"ha":492,"x_min":-25,"x_max":535,"o":"m 535 1257 q 413 1140 489 1214 q 367 1083 403 1132 q 306 1032 343 1051 l 211 1090 q 318 1233 304 1217 q 451 1356 371 1296 l 535 1257 m 303 1257 q 181 1140 256 1214 q 133 1082 171 1132 q 72 1031 110 1051 l -25 1103 q 218 1356 104 1269 l 303 1257 z "},"µ":{"ha":765,"x_min":47,"x_max":708,"o":"m 708 313 q 701 206 708 249 q 603 24 685 100 q 415 -53 521 -53 q 185 64 274 -53 q 185 -100 183 1 q 186 -265 186 -226 l 49 -265 q 47 -126 49 -219 q 47 14 47 -33 q 61 363 47 153 q 88 728 75 553 l 219 731 q 228 457 226 683 q 246 236 229 278 q 415 88 304 88 q 540 165 499 88 q 572 317 572 226 q 561 511 572 382 q 550 706 550 640 l 688 706 q 698 508 688 639 q 708 313 708 378 z "},"–":{"ha":914,"x_min":32,"x_max":851,"o":"m 851 290 q 636 293 768 290 q 438 296 504 296 q 82 265 192 296 l 32 369 q 415 411 158 411 q 633 408 488 411 q 851 404 779 404 l 851 290 z "},"—":{"ha":1026,"x_min":24,"x_max":968,"o":"m 968 290 q 717 294 874 290 q 483 297 561 297 q 72 265 186 297 l 24 369 q 460 411 149 411 q 714 408 544 411 q 968 404 883 404 l 968 290 z "},"‘":{"ha":378,"x_min":50,"x_max":346,"o":"m 346 903 q 194 775 215 822 q 179 568 179 740 l 51 568 q 50 618 51 582 q 50 668 50 650 q 111 886 50 808 q 281 1017 153 939 l 346 903 z "},"’":{"ha":342,"x_min":26,"x_max":303,"o":"m 303 932 q 270 711 303 776 q 104 533 238 646 l 26 639 q 144 754 118 717 q 174 839 169 788 q 176 1010 176 863 l 303 1010 l 303 932 z "},"‚":{"ha":446,"x_min":39,"x_max":408,"o":"m 408 99 l 376 40 q 338 -68 361 11 q 293 -172 315 -139 q 192 -253 256 -226 q 113 -299 157 -265 l 39 -187 q 149 -126 93 -150 q 211 -44 190 -108 q 292 161 249 75 l 408 99 z "},"“":{"ha":619,"x_min":28,"x_max":586,"o":"m 586 886 q 437 755 475 824 q 399 556 399 686 l 263 556 q 317 831 263 732 q 535 1007 378 942 l 586 886 m 307 919 q 197 801 219 838 q 171 716 174 765 q 164 556 168 667 l 28 564 q 38 750 31 629 q 94 900 43 835 q 218 1010 129 943 l 307 919 z "},"”":{"ha":601,"x_min":31,"x_max":565,"o":"m 565 1003 q 525 733 550 792 q 314 543 482 626 l 281 676 q 407 822 378 700 q 431 1014 421 882 l 565 1003 m 329 1000 q 292 736 329 819 q 93 554 244 631 l 31 672 q 172 800 143 729 q 194 1000 194 854 l 329 1000 z "},"„":{"ha":668,"x_min":63,"x_max":606,"o":"m 363 10 q 314 -174 363 -106 q 381 -150 340 -167 q 471 156 471 -101 l 606 156 q 550 -156 606 -39 q 468 -249 519 -218 q 351 -294 443 -264 l 294 -197 q 94 -292 233 -262 l 63 -161 q 186 -110 150 -144 q 226 14 226 -69 q 217 129 226 51 l 351 144 q 363 10 363 60 z "},"†":{"ha":539,"x_min":22,"x_max":526,"o":"m 526 697 q 331 674 433 671 q 335 282 335 431 l 200 282 q 196 669 200 432 q 22 664 113 663 l 22 800 q 193 807 107 800 l 193 969 l 328 969 l 328 810 q 361 810 347 810 q 492 829 417 810 l 526 697 z "},"‡":{"ha":568,"x_min":32,"x_max":540,"o":"m 540 733 q 435 706 483 713 q 361 696 397 700 q 363 551 364 636 q 525 551 406 550 l 525 414 q 361 415 408 414 l 361 256 l 226 256 q 228 426 226 357 q 46 426 238 426 l 46 564 l 228 563 l 228 568 q 228 682 228 633 q 32 679 157 678 l 32 817 q 218 821 153 817 q 217 906 217 854 l 217 950 l 351 950 q 351 835 351 869 q 492 876 415 846 l 540 733 z "},"•":{"ha":689,"x_min":43,"x_max":642,"o":"m 642 364 q 564 190 642 253 q 378 135 493 135 q 163 189 264 135 q 43 361 43 256 q 132 606 43 501 q 364 715 226 715 q 569 597 488 715 q 642 364 642 493 z "},"…":{"ha":1214,"x_min":43,"x_max":1151,"o":"m 1151 10 q 919 -18 1081 4 l 899 132 q 1138 161 983 143 l 1151 10 m 724 10 q 492 -18 651 4 l 471 132 q 710 161 556 143 l 724 10 m 294 10 q 63 -18 224 4 l 43 132 q 281 161 128 143 l 294 10 z "},"‰":{"ha":1447,"x_min":19,"x_max":1465,"o":"m 1465 356 q 1236 35 1465 35 q 1083 89 1138 35 q 1029 240 1029 143 q 1080 428 1029 340 q 1221 557 1131 517 l 1229 583 q 1465 356 1465 507 m 1324 356 q 1264 424 1324 396 q 1194 335 1219 400 q 1174 222 1174 281 q 1189 181 1174 189 q 1236 174 1199 174 q 1314 242 1296 174 q 1324 356 1324 276 m 1008 360 q 949 146 1008 235 q 760 44 879 44 q 575 214 575 44 q 650 425 575 319 q 829 554 728 536 l 844 585 q 969 501 936 542 q 1008 360 1008 451 m 868 361 q 858 415 868 399 q 763 339 810 406 q 715 222 715 272 q 760 185 715 185 q 843 250 813 185 q 868 361 868 303 m 469 707 q 419 532 469 607 q 267 444 363 444 q 92 508 164 444 q 19 672 19 571 q 90 846 19 754 q 242 949 161 938 l 313 958 l 319 900 q 469 707 469 890 m 319 761 l 265 761 l 265 811 q 199 753 238 807 q 161 672 161 700 q 190 610 161 638 q 253 582 218 582 q 325 715 325 582 q 319 761 325 743 m 826 932 l 815 864 q 753 713 804 794 q 664 574 708 643 q 325 85 493 281 q 235 -50 282 33 l 113 17 q 293 257 147 79 q 506 574 357 336 q 676 886 667 832 l 688 956 l 826 932 z "},"‹":{"ha":415,"x_min":33,"x_max":378,"o":"m 378 703 q 182 397 286 531 q 165 375 174 386 q 233 260 183 329 q 307 146 289 182 q 364 76 319 119 l 275 -25 q 133 179 226 24 q 33 383 33 344 q 69 472 33 422 q 132 549 100 510 q 265 771 182 614 l 378 703 z "},"›":{"ha":396,"x_min":10,"x_max":353,"o":"m 353 404 q 319 319 353 361 q 269 260 303 300 q 126 -14 233 214 l 10 47 q 214 399 110 257 q 94 546 115 510 q 50 738 56 615 l 181 743 q 217 604 183 660 q 304 496 236 569 q 353 404 353 444 z "},"⁄":{"ha":690,"x_min":8,"x_max":671,"o":"m 671 947 l 665 878 q 606 733 660 811 q 508 607 557 669 q 386 390 475 561 q 260 169 307 239 q 132 -51 183 57 l 8 10 q 131 219 49 96 q 242 401 211 339 q 481 800 347 617 q 524 872 515 847 q 535 958 531 893 l 671 947 z "},"™":{"ha":1201,"x_min":22,"x_max":1179,"o":"m 1179 428 l 1046 386 q 967 665 1015 496 q 776 339 894 492 q 618 681 717 492 q 579 428 579 544 l 438 428 q 469 643 438 526 q 531 849 500 746 l 575 1021 q 804 629 672 863 q 983 979 860 744 q 1179 428 1063 806 m 490 804 q 351 803 397 804 l 351 764 q 321 408 351 557 l 182 435 q 210 757 210 572 l 210 800 q 22 821 128 801 l 51 956 q 271 938 149 938 q 378 939 306 938 q 490 940 450 940 l 490 804 z "},"":{"ha":740,"x_min":15,"x_max":701,"o":"m 701 210 q 701 108 701 176 q 700 8 700 42 l 563 8 q 564 114 563 43 q 564 219 564 183 q 554 388 564 282 q 542 556 543 511 q 314 549 438 556 l 314 525 q 319 263 314 438 q 325 1 325 89 l 188 1 q 182 274 188 88 q 178 546 176 451 q 25 543 71 547 l 15 683 q 183 686 81 689 q 446 1036 214 1036 q 557 1033 483 1036 q 667 1031 631 1031 l 667 890 q 577 892 638 890 q 486 894 517 894 q 354 838 390 894 q 321 690 332 799 q 528 696 433 694 l 668 718 q 679 574 675 669 q 689 432 683 478 q 701 210 701 338 z "},"":{"ha":743,"x_min":13,"x_max":707,"o":"m 707 1026 q 685 868 703 968 q 669 740 669 786 l 669 7 l 532 7 l 532 557 q 311 549 442 556 l 311 525 q 317 263 311 438 q 322 1 322 89 l 185 1 q 179 274 185 88 q 175 546 174 451 q 22 543 69 547 l 13 683 q 181 686 78 689 q 444 1036 213 1044 l 568 1032 l 568 1036 l 707 1026 m 554 892 q 443 896 475 896 q 318 690 340 896 q 532 697 440 696 q 554 892 532 753 z "},"€":{"ha":647,"x_min":-28,"x_max":686,"o":"m 686 115 q 451 -11 574 -11 q 232 88 332 -11 q 107 299 143 175 q -28 297 63 296 l -28 438 q 93 439 54 438 l 94 461 q 51 450 83 458 l 17 586 q 119 610 64 599 q 250 854 163 775 q 508 940 344 940 l 610 940 l 610 800 q 372 774 424 800 q 267 619 310 740 l 272 619 q 511 640 404 619 l 536 503 q 235 481 446 485 q 232 450 233 465 q 439 460 328 460 l 439 321 q 249 313 333 321 q 326 190 279 240 q 450 128 386 128 q 583 208 511 128 l 686 115 z "}}}
